<?xml version="1.0" encoding="utf-8"?>
<!-- Generator: Adobe Illustrator 21.1.0, SVG Export Plug-In . SVG Version: 6.00 Build 0)  -->
<svg version="1.1" id="Layer_1" xmlns="http://www.w3.org/2000/svg" xmlns:xlink="http://www.w3.org/1999/xlink" x="0px" y="0px"
	 viewBox="0 0 852 148" style="enable-background:new 0 0 852 148;" xml:space="preserve">
<style type="text/css">
	.st0{display:none;fill:#020202;stroke:#000000;stroke-miterlimit:10;}
	.st1{fill:#DCDBDB;}
	.st2{fill:#2BACE2;}
	.st3{fill:#FFFFFF;}
	.st4{opacity:0.8;}
</style>
<rect y="0" class="st0" width="853.5" height="148.5"/>
<g transform="translate(64.000000, 0.000000)">
	<polygon id="Path" class="st1" points="660.1,57.7 604.7,2.3 597.9,9.1 622.2,33.4 597.9,57.7 604.7,64.5 629,40.2 653.3,64.5 	"/>
	<polygon id="Rectangle" class="st2" points="633.1,22.3 653,2.3 659.8,9.1 639.9,29 	"/>
	<path id="Shape" class="st1" d="M137.9,64.2H86.7v28.1H75.9V54.5c0-10.6,2.2-17.7,6.6-21.3c3.8-3.2,11.1-4.7,21.8-4.7h15.9
		c10.5,0,17.8,1.6,21.7,4.7c4.5,3.6,6.7,10.7,6.7,21.1v37.8h-10.8V64.2z M86.7,54.5H138c0-7.3-1.5-11.8-4.4-13.9
		c-2.3-1.6-7.3-2.4-14.9-2.4h-12.8c-7.5,0-12.4,0.9-14.7,2.6C88.2,42.8,86.8,47.4,86.7,54.5z"/>
	<path id="Path_1_" class="st1" d="M236.3,72.3c0,8.3-2.6,14-7.7,16.9c-3.7,2.1-10.1,3.1-19,3.1H191c-11.7,0-19.5-2.3-23.3-6.8
		c-3.4-4-5-11.9-5-23.9c-0.3-6.6,0.3-13.2,1.8-19.6c1.5-5.5,5.6-9.8,11-11.5c5.4-1.6,11-2.2,16.7-2h17.4c8.8,0,15.1,1.1,18.9,3.2
		c5.2,2.9,7.7,8.4,7.7,16.5h-11c0-6.2-5.3-9.4-16-9.4h-16.9c-8.5,0-13.8,1.5-16.1,4.6c-1.7,2.4-2.6,7.9-2.6,16.8
		c-0.1,4.3,0.1,8.7,0.6,13c0.5,3.6,3,6.5,6.4,7.7c3.5,0.9,7.1,1.3,10.6,1.2h18.1c3.6,0.2,7.3-0.2,10.8-1.3c3.5-1.3,5.6-4.8,5.2-8.5
		L236.3,72.3z"/>
	<path id="Path_2_" class="st1" d="M320.5,72.3c0,8.3-2.6,14-7.7,16.9c-3.7,2.1-10,3.1-19,3.1h-18.7c-11.7,0-19.4-2.4-23.2-6.8
		c-3.4-4-5-11.9-5-23.9c-0.2-6.6,0.4-13.2,1.8-19.6c1.5-5.4,5.6-9.8,11-11.5c5.4-1.6,11.1-2.2,16.7-2h17.4c8.8,0,15.1,1.1,18.9,3.2
		c5.2,2.9,7.8,8.4,7.8,16.5h-11c0-6.2-5.3-9.4-16-9.4h-16.9c-8.5,0-13.8,1.5-16.1,4.6c-1.7,2.4-2.6,7.9-2.6,16.8
		c-0.1,4.3,0.1,8.7,0.6,13c0.5,3.6,3,6.5,6.4,7.7c3.5,0.9,7,1.3,10.6,1.2h18.1c3.6,0.2,7.3-0.2,10.8-1.3c3.5-1.3,5.7-4.8,5.2-8.5
		L320.5,72.3z"/>
	<path id="Shape_1_" class="st1" d="M406.5,73.5c0,8-2.6,13.3-7.8,15.8c-4,1.9-11.8,2.9-23.4,2.9h-14c-5.5,0.2-11-0.3-16.4-1.4
		c-5.4-1-10-4.8-12-9.9c-1.5-4-2.3-10.4-2.3-19.4c-0.3-6.9,0.4-13.8,2-20.5c1.7-5.5,6.2-9.7,11.7-11c5.6-1.2,11.3-1.7,17-1.5h14
		c6.4-0.3,12.9,0.5,19,2.4c7,2.5,10.9,7,11.7,13.5c0,1.1,0.2,4.5,0.4,10.4V64h-65.8c0,8.4,1.5,13.7,4.5,16c2.4,1.7,8,2.6,16.7,2.6
		H375c5.2,0.2,10.3-0.1,15.4-1.1c3.7-0.8,6.1-4.3,5.7-8.1L406.5,73.5z M396.2,54.9c-0.1-5.8-0.2-9-0.4-9.7c-0.6-3.2-3.2-5.7-6.5-6.1
		c-4.8-0.8-9.6-1.1-14.4-0.9h-13c-8.6,0-14.2,0.8-16.7,2.5c-3.1,2-4.7,6.8-4.7,14.3H396.2z"/>
	<path id="Path_3_" class="st1" d="M493.2,73.6c0,7-1.8,11.9-5.4,14.8c-3.1,2.6-8.3,3.9-15.4,3.9h-31.7c-13.9,0-20.8-6-20.8-18.1
		h10.8c0,5.6,3.9,8.4,11.7,8.4h27.4c2.9,0.2,5.8-0.3,8.5-1.6c2.6-1.6,4-4.5,3.7-7.5c0.1-4-2.6-7.4-6.4-8.3
		c-3.7-1.1-7.6-1.5-11.5-1.4c-2,0-5.1,0-9.1,0.2c-4,0.2-7,0.2-9.1,0.2c-8.1,0-14.1-1-18-3c-5.6-2.8-8.4-7.8-8.4-15.1
		c0-6.5,1.9-11.3,5.8-14.2c3.3-2.4,8.3-3.6,15.2-3.7h30.1c14.8,0,22.3,6,22.3,18h-11.4c0-5.6-4-8.4-11.9-8.4h-28.4
		c-6.6,0-9.8,2.7-9.8,8.3s6,8.6,18,8.6c1.9,0,4.7-0.1,8.3-0.3c3.7-0.2,6.5-0.3,8.3-0.3c8.1,0,14.3,1.1,18.6,3.4
		C490.3,60.9,493.2,66.1,493.2,73.6z"/>
	<path id="Path_4_" class="st1" d="M580.7,73.6c0,7-1.8,11.9-5.4,14.8c-3.1,2.6-8.3,3.9-15.4,3.9h-31.6c-13.9,0-20.8-6-20.8-18.1
		h10.8c0,5.6,3.9,8.4,11.7,8.4h27.4c2.9,0.2,5.8-0.3,8.5-1.6c2.6-1.6,4-4.5,3.7-7.5c0.1-4-2.6-7.4-6.4-8.3
		c-3.7-1.1-7.6-1.5-11.5-1.4c-2,0-5.1,0-9.1,0.2c-4,0.2-7,0.2-9.1,0.2c-8.1,0-14.1-1-18-3c-5.6-2.8-8.4-7.8-8.4-15.1
		c0-6.5,1.9-11.3,5.8-14.2c3.3-2.4,8.4-3.6,15.2-3.7h30.2c14.9,0,22.3,6,22.3,18h-11.4c0-5.6-4-8.4-11.9-8.4h-28.3
		c-6.6,0-9.8,2.7-9.8,8.3s6,8.6,17.9,8.6c1.9,0,4.7-0.1,8.4-0.3c3.7-0.2,6.5-0.3,8.3-0.3c8.1,0,14.3,1.1,18.6,3.4
		C577.9,60.9,580.7,66.1,580.7,73.6z"/>
</g>
<path id="San-Francisco" class="st3" d="M8.4,126.2c3.8,0,6.6,2.1,7.2,5.3l-3,0.6c-0.3-2-2-3.3-4.3-3.3c-2.2,0-3.7,1.2-3.7,2.9
	c0,1.3,0.8,2,2.4,2.4l4.1,0.9c2.8,0.6,4.8,2.2,4.8,5.1c0,3.5-2.9,5.7-7.2,5.7c-4,0-7.3-1.9-7.8-5.6l3.2-0.7c0.4,2.4,2.3,3.6,4.8,3.6
	s3.9-1.2,3.9-2.9c0-1.4-0.8-2.1-2.6-2.5l-4.1-0.8c-2.3-0.5-4.7-1.8-4.7-5.1C1.5,128.4,4.2,126.2,8.4,126.2z M33.2,131.4v13.9h-2.9
	v-1.6c-1.2,1.3-2.9,2-5,2c-3.6,0-6.9-2.9-6.9-7.3c0-4.4,3.2-7.3,6.9-7.3c2.1,0,3.8,0.7,5,2v-1.6H33.2z M25.7,143.1
	c2.3,0,4.6-1.8,4.6-4.8c0-2.9-2.3-4.8-4.6-4.8c-2.5,0-4.5,1.8-4.5,4.8C21.2,141.3,23.2,143.1,25.7,143.1z M45.3,131
	c3.3,0,5.6,2.4,5.6,5.9v8.4H48v-7.8c0-2.3-1.3-3.8-3.3-3.8c-2.5,0-4.1,1.7-4.1,5.2v6.4h-2.9v-13.9h2.9v1.7
	C41.6,131.8,43.3,131,45.3,131z M64.9,129.3v5.6h9.7v2.7h-9.7v7.8h-3v-18.8h13.7v2.7H64.9z M86.4,131.2c0.3,0,0.6,0,1,0.1l-0.2,2.8
	c-0.2,0-0.6,0-0.8,0c-3.5,0-5.3,2.5-5.3,6.3v4.9h-2.9v-13.9h2.9v3C82.2,132.5,84,131.2,86.4,131.2z M103.3,131.4v13.9h-2.9v-1.6
	c-1.2,1.3-2.9,2-5,2c-3.6,0-6.9-2.9-6.9-7.3c0-4.4,3.2-7.3,6.9-7.3c2.1,0,3.8,0.7,5,2v-1.6H103.3z M95.8,143.1
	c2.3,0,4.6-1.8,4.6-4.8c0-2.9-2.3-4.8-4.6-4.8c-2.5,0-4.5,1.8-4.5,4.8C91.3,141.3,93.2,143.1,95.8,143.1z M115.4,131
	c3.3,0,5.6,2.4,5.6,5.9v8.4h-2.9v-7.8c0-2.3-1.3-3.8-3.3-3.8c-2.5,0-4.1,1.7-4.1,5.2v6.4h-2.9v-13.9h2.9v1.7
	C111.7,131.8,113.3,131,115.4,131z M131.2,143c1.8,0,3.4-0.9,4.1-2.9l2.7,0.7c-0.8,3-3.6,4.9-6.8,4.9c-4,0-7.3-2.9-7.3-7.3
	c0-4.3,3.4-7.3,7.3-7.3c3.1,0,5.9,1.9,6.8,4.9l-2.8,0.8c-0.5-2-2.1-3-4-3c-2.6,0-4.5,1.9-4.5,4.6C126.7,141.2,128.6,143,131.2,143z
	 M142.9,125.4c1.1,0,1.8,0.8,1.8,1.8c0,1-0.8,1.8-1.8,1.8c-1.1,0-1.9-0.8-1.9-1.8C141,126.3,141.8,125.4,142.9,125.4z M144.3,145.3
	h-2.9v-13.9h2.9V145.3z M147.8,141.6l2.9-0.6c0.2,1.7,1.7,2.4,3.5,2.4c1.7,0,2.7-0.8,2.7-1.8c0-0.8-0.6-1.4-1.9-1.7l-3-0.6
	c-2.4-0.5-3.8-1.8-3.8-3.8c0-2.6,2.2-4.4,5.5-4.4c3.2,0,5.3,1.7,5.9,4l-2.8,0.6c-0.2-1.3-1.4-2.3-3.2-2.3c-1.7,0-2.5,0.8-2.5,1.8
	c0,0.8,0.4,1.3,1.7,1.6l3.3,0.7c2.2,0.5,3.6,1.8,3.6,3.8c0,2.9-2.4,4.5-5.9,4.5C150.8,145.7,148.2,144.4,147.8,141.6z M169.2,143
	c1.8,0,3.4-0.9,4.1-2.9l2.7,0.7c-0.8,3-3.6,4.9-6.8,4.9c-4,0-7.3-2.9-7.3-7.3c0-4.3,3.4-7.3,7.3-7.3c3.1,0,5.9,1.9,6.8,4.9l-2.8,0.8
	c-0.5-2-2.1-3-4-3c-2.6,0-4.5,1.9-4.5,4.6C164.7,141.2,166.6,143,169.2,143z M185.5,131.1c4.1,0,7.4,2.9,7.4,7.3s-3.3,7.3-7.4,7.3
	c-4.1,0-7.5-3-7.5-7.3S181.4,131.1,185.5,131.1z M185.5,143.1c2.4,0,4.6-1.9,4.6-4.8s-2.2-4.8-4.6-4.8c-2.4,0-4.6,1.9-4.6,4.8
	S183.1,143.1,185.5,143.1z"/>
<path id="New-York" class="st3" d="M275,126.5v18.8h-2.5l-11.3-13.5v13.5h-3v-18.8h2.5l11.3,13.7v-13.7H275z M292.3,138.1v1h-11.3
	c0.3,2.6,2.2,4.1,4.2,4.1c1.5,0,3.1-0.4,4.1-2.4l2.6,0.6c-1.1,2.9-3.6,4.4-6.7,4.4c-3.8,0-7.1-2.9-7.1-7.3c0-4.4,3.3-7.4,7.2-7.4
	C289.1,131,292.2,133.9,292.3,138.1z M285.4,133.6c-1.8,0-3.8,1.1-4.2,3.4h8.2C288.9,134.7,287.3,133.6,285.4,133.6z M314.6,131.4
	l-4.6,13.9h-2.7l-3.2-9.4l-3.2,9.4h-2.7l-4.6-13.9h2.9l3.2,9.7l3.3-9.7h2.3l3.3,9.7l3.2-9.7H314.6z M332.9,139v6.3h-3v-6.2
	l-7.6-12.5h3.3l5.8,9.4l5.7-9.4h3.4L332.9,139z M346.1,131.1c4.1,0,7.4,2.9,7.4,7.3s-3.3,7.3-7.4,7.3c-4.1,0-7.5-3-7.5-7.3
	S342,131.1,346.1,131.1z M346.1,143.1c2.4,0,4.6-1.9,4.6-4.8s-2.2-4.8-4.6-4.8c-2.4,0-4.6,1.9-4.6,4.8S343.7,143.1,346.1,143.1z
	 M365,131.2c0.3,0,0.6,0,1,0.1l-0.2,2.8c-0.2,0-0.6,0-0.8,0c-3.5,0-5.3,2.5-5.3,6.3v4.9h-2.9v-13.9h2.9v3
	C360.8,132.5,362.6,131.2,365,131.2z M382.7,145.3h-3.9l-6.4-5.8h-0.8v5.8h-2.9v-20.2h2.9v11.5h0.9l5.8-5.2h3.7l-7.3,6.7
	L382.7,145.3z"/>
<path id="Miami" class="st3" d="M476,126.5v18.8h-2.9v-12.4l-6.6,12.4h-1.4l-6.7-12.4v12.4h-2.9v-18.8h2.6l7.6,14.2l7.7-14.2H476z
	 M482.2,125.4c1.1,0,1.8,0.8,1.8,1.8c0,1-0.8,1.8-1.8,1.8c-1.1,0-1.9-0.8-1.9-1.8C480.3,126.3,481.1,125.4,482.2,125.4z
	 M483.6,145.3h-2.9v-13.9h2.9V145.3z M501.8,131.4v13.9h-2.9v-1.6c-1.2,1.3-2.9,2-5,2c-3.6,0-6.9-2.9-6.9-7.3c0-4.4,3.2-7.3,6.9-7.3
	c2.1,0,3.8,0.7,5,2v-1.6H501.8z M494.3,143.1c2.3,0,4.6-1.8,4.6-4.8c0-2.9-2.3-4.8-4.6-4.8c-2.5,0-4.5,1.8-4.5,4.8
	C489.8,141.3,491.8,143.1,494.3,143.1z M523.4,131c2.9,0,5.3,2.2,5.3,5.4v8.8h-2.9V137c0-2-1.3-3.3-3.1-3.3c-2.3,0-3.8,1.6-3.8,4.7
	v6.9H516V137c0-2-1.3-3.3-3.1-3.3c-2.2,0-3.7,1.6-3.7,4.7v6.9h-2.9v-13.9h2.9v1.6c1-1.2,2.5-2,4.5-2c2,0,3.7,0.9,4.6,2.5
	C519.3,132,521.1,131,523.4,131z M534.5,125.4c1.1,0,1.8,0.8,1.8,1.8c0,1-0.8,1.8-1.8,1.8c-1.1,0-1.9-0.8-1.9-1.8
	C532.6,126.3,533.4,125.4,534.5,125.4z M535.9,145.3H533v-13.9h2.9V145.3z"/>
<path id="London" class="st3" d="M624.7,142.6v2.7h-13.2v-18.8h3v16H624.7z M634.2,131.1c4.1,0,7.4,2.9,7.4,7.3s-3.3,7.3-7.4,7.3
	c-4.1,0-7.5-3-7.5-7.3S630.1,131.1,634.2,131.1z M634.2,143.1c2.4,0,4.6-1.9,4.6-4.8s-2.2-4.8-4.6-4.8c-2.4,0-4.6,1.9-4.6,4.8
	S631.8,143.1,634.2,143.1z M652.6,131c3.3,0,5.6,2.4,5.6,5.9v8.4h-2.9v-7.8c0-2.3-1.3-3.8-3.3-3.8c-2.5,0-4.1,1.7-4.1,5.2v6.4h-2.9
	v-13.9h2.9v1.7C648.9,131.8,650.5,131,652.6,131z M675.9,125.1v20.2H673v-1.6c-1.2,1.2-2.9,2-5,2c-3.6,0-6.9-2.9-6.9-7.3
	c0-4.4,3.3-7.3,6.9-7.3c2.1,0,3.8,0.7,5,2v-7.9H675.9z M668.4,143.1c2.3,0,4.6-1.8,4.6-4.8c0-2.9-2.2-4.8-4.6-4.8
	c-2.5,0-4.5,1.8-4.5,4.8C663.9,141.3,665.9,143.1,668.4,143.1z M686.6,131.1c4.1,0,7.4,2.9,7.4,7.3s-3.3,7.3-7.4,7.3
	c-4.1,0-7.5-3-7.5-7.3S682.4,131.1,686.6,131.1z M686.6,143.1c2.4,0,4.6-1.9,4.6-4.8s-2.2-4.8-4.6-4.8c-2.4,0-4.6,1.9-4.6,4.8
	S684.1,143.1,686.6,143.1z M705,131c3.3,0,5.6,2.4,5.6,5.9v8.4h-2.9v-7.8c0-2.3-1.3-3.8-3.3-3.8c-2.5,0-4.1,1.7-4.1,5.2v6.4h-2.9
	v-13.9h2.9v1.7C701.3,131.8,702.9,131,705,131z"/>
<g class="st4">
	<path class="st3" d="M787.1,145.3v-18.5h5.7c1.6,0,3.1,0.4,4.4,1.1c1.3,0.7,2.3,1.8,3,3.1c0.7,1.4,1.1,2.9,1.1,4.6v0.9
		c0,1.7-0.4,3.2-1.1,4.6c-0.7,1.3-1.7,2.4-3,3.1s-2.7,1.1-4.4,1.1H787.1z M791,129.9v12.3h1.8c1.5,0,2.6-0.5,3.4-1.5
		s1.2-2.4,1.2-4.2v-1c0-1.9-0.4-3.3-1.2-4.3c-0.8-1-1.9-1.5-3.4-1.5H791z"/>
	<path class="st3" d="M812,143.9c-0.9,1.1-2.2,1.7-3.8,1.7c-1.5,0-2.6-0.4-3.4-1.3c-0.8-0.8-1.2-2.1-1.2-3.7v-9h3.7v8.9
		c0,1.4,0.7,2.1,2,2.1c1.2,0,2.1-0.4,2.6-1.3v-9.7h3.7v13.7h-3.5L812,143.9z"/>
	<path class="st3" d="M830.7,138.6c0,2.2-0.5,3.9-1.4,5.1c-0.9,1.2-2.3,1.8-3.9,1.8c-1.5,0-2.7-0.6-3.6-1.7l-0.2,1.5h-3.3v-19.5h3.7
		v7c0.8-1,2-1.5,3.3-1.5c1.7,0,3,0.6,3.9,1.8c1,1.2,1.4,3,1.4,5.2V138.6z M827.1,138.3c0-1.4-0.2-2.4-0.7-3c-0.4-0.6-1.1-1-2-1
		c-1.2,0-2,0.5-2.4,1.4v5.4c0.4,1,1.3,1.4,2.4,1.4c1.2,0,2-0.6,2.3-1.8C827,140.3,827.1,139.4,827.1,138.3z"/>
	<path class="st3" d="M840.9,145.3c-0.2-0.3-0.3-0.7-0.4-1.2c-0.9,1-2,1.5-3.5,1.5c-1.3,0-2.5-0.4-3.3-1.2c-0.9-0.8-1.3-1.8-1.3-2.9
		c0-1.5,0.5-2.6,1.6-3.4c1.1-0.8,2.6-1.2,4.7-1.2h1.7v-0.8c0-0.6-0.2-1.1-0.5-1.5c-0.3-0.4-0.8-0.6-1.5-0.6c-0.6,0-1.1,0.1-1.5,0.4
		c-0.4,0.3-0.5,0.7-0.5,1.2h-3.7c0-0.8,0.2-1.5,0.7-2.2s1.2-1.2,2.1-1.6c0.9-0.4,1.9-0.6,3-0.6c1.7,0,3,0.4,4,1.3
		c1,0.9,1.5,2,1.5,3.6v6c0,1.3,0.2,2.3,0.5,3v0.2H840.9z M837.9,142.8c0.5,0,1-0.1,1.5-0.4c0.5-0.2,0.8-0.6,1-1v-2.4h-1.4
		c-1.8,0-2.8,0.6-2.9,1.9l0,0.2c0,0.5,0.2,0.8,0.5,1.1S837.4,142.8,837.9,142.8z"/>
	<path class="st3" d="M846.9,128c0-0.5,0.2-1,0.6-1.4c0.4-0.4,0.9-0.5,1.5-0.5c0.6,0,1.1,0.2,1.5,0.5s0.6,0.8,0.6,1.4
		c0,0.6-0.2,1-0.6,1.4c-0.4,0.4-0.9,0.5-1.5,0.5s-1.1-0.2-1.5-0.5C847.1,129,846.9,128.6,846.9,128z M850.8,145.3h-3.7v-13.7h3.7
		V145.3z"/>
</g>
</svg>
