<?xml version="1.0" encoding="UTF-8"?>
<svg width="711px" height="144px" viewBox="0 0 711 144" version="1.1" xmlns="http://www.w3.org/2000/svg" xmlns:xlink="http://www.w3.org/1999/xlink">
    <!-- Generator: Sketch 52.3 (67297) - http://www.bohemiancoding.com/sketch -->
    <title>acces-logo</title>
    <desc>Created with Sketch.</desc>
    <g id="acces-logo" stroke="none" stroke-width="1" fill="none" fill-rule="evenodd">
        <g id="Group-2" transform="translate(-1.000000, 115.000000)" fill="#FFFFFF" opacity="0.75078125">
            <path d="M9.104,8.848 C12.912,8.848 15.656,10.92 16.328,14.14 L13.332,14.756 C12.996,12.768 11.288,11.452 9.048,11.452 C6.836,11.452 5.38,12.656 5.38,14.308 C5.38,15.624 6.136,16.324 7.76,16.66 L11.82,17.528 C14.62,18.144 16.636,19.712 16.636,22.652 C16.636,26.18 13.752,28.392 9.44,28.392 C5.464,28.392 2.16,26.46 1.684,22.82 L4.876,22.148 C5.324,24.556 7.2,25.732 9.72,25.732 C12.24,25.732 13.668,24.528 13.668,22.82 C13.668,21.392 12.912,20.72 11.036,20.328 L6.948,19.488 C4.624,18.956 2.216,17.724 2.216,14.392 C2.216,11.088 4.932,8.848 9.104,8.848 Z M33.884,14.112 L33.884,28 L30.972,28 L30.972,26.404 C29.768,27.664 28.032,28.392 25.932,28.392 C22.292,28.392 19.044,25.452 19.044,21.056 C19.044,16.688 22.292,13.72 25.932,13.72 C28.032,13.72 29.768,14.448 30.972,15.708 L30.972,14.112 L33.884,14.112 Z M26.408,25.816 C28.704,25.816 30.972,23.996 30.972,21.056 C30.972,18.144 28.704,16.296 26.408,16.296 C23.86,16.296 21.872,18.144 21.872,21.056 C21.872,23.996 23.86,25.816 26.408,25.816 Z M46.036,13.72 C49.368,13.72 51.608,16.128 51.608,19.6 L51.608,28 L48.668,28 L48.668,20.188 C48.668,17.92 47.352,16.408 45.364,16.408 C42.872,16.408 41.22,18.088 41.22,21.588 L41.22,28 L38.308,28 L38.308,14.112 L41.22,14.112 L41.22,15.82 C42.34,14.476 43.964,13.72 46.036,13.72 Z M65.58,11.956 L65.58,17.528 L75.268,17.528 L75.268,20.244 L65.58,20.244 L65.58,28 L62.584,28 L62.584,9.24 L76.304,9.24 L76.304,11.956 L65.58,11.956 Z M87.084,13.944 C87.42,13.944 87.7,13.944 88.064,14.056 L87.868,16.856 C87.644,16.828 87.308,16.828 87.056,16.828 C83.528,16.828 81.792,19.292 81.792,23.1 L81.792,28 L78.88,28 L78.88,14.112 L81.792,14.112 L81.792,17.08 C82.912,15.232 84.676,13.944 87.084,13.944 Z M103.968,14.112 L103.968,28 L101.056,28 L101.056,26.404 C99.852,27.664 98.116,28.392 96.016,28.392 C92.376,28.392 89.128,25.452 89.128,21.056 C89.128,16.688 92.376,13.72 96.016,13.72 C98.116,13.72 99.852,14.448 101.056,15.708 L101.056,14.112 L103.968,14.112 Z M96.492,25.816 C98.788,25.816 101.056,23.996 101.056,21.056 C101.056,18.144 98.788,16.296 96.492,16.296 C93.944,16.296 91.956,18.144 91.956,21.056 C91.956,23.996 93.944,25.816 96.492,25.816 Z M116.12,13.72 C119.452,13.72 121.692,16.128 121.692,19.6 L121.692,28 L118.752,28 L118.752,20.188 C118.752,17.92 117.436,16.408 115.448,16.408 C112.956,16.408 111.304,18.088 111.304,21.588 L111.304,28 L108.392,28 L108.392,14.112 L111.304,14.112 L111.304,15.82 C112.424,14.476 114.048,13.72 116.12,13.72 Z M131.884,25.704 C133.732,25.704 135.3,24.808 135.972,22.792 L138.66,23.492 C137.904,26.488 135.104,28.392 131.884,28.392 C127.908,28.392 124.548,25.452 124.548,21.056 C124.548,16.716 127.908,13.72 131.884,13.72 C135.02,13.72 137.792,15.624 138.66,18.592 L135.86,19.404 C135.328,17.36 133.732,16.408 131.884,16.408 C129.308,16.408 127.404,18.312 127.404,21.056 C127.404,23.884 129.308,25.704 131.884,25.704 Z M143.588,8.12 C144.652,8.12 145.436,8.96 145.436,9.94 C145.436,10.976 144.652,11.732 143.588,11.732 C142.496,11.732 141.712,10.976 141.712,9.94 C141.712,8.96 142.496,8.12 143.588,8.12 Z M145.044,28 L142.132,28 L142.132,14.112 L145.044,14.112 L145.044,28 Z M148.488,24.276 L151.4,23.66 C151.596,25.312 153.052,26.012 154.872,26.012 C156.552,26.012 157.616,25.256 157.616,24.164 C157.616,23.324 157.028,22.792 155.74,22.512 L152.716,21.896 C150.308,21.364 148.936,20.076 148.936,18.116 C148.936,15.54 151.092,13.72 154.424,13.72 C157.616,13.72 159.772,15.4 160.276,17.724 L157.504,18.312 C157.28,16.968 156.132,16.044 154.34,16.044 C152.632,16.044 151.876,16.884 151.876,17.864 C151.876,18.648 152.324,19.152 153.556,19.432 L156.86,20.16 C159.1,20.636 160.472,21.952 160.472,23.912 C160.472,26.824 158.092,28.392 154.62,28.392 C151.512,28.392 148.852,27.076 148.488,24.276 Z M169.908,25.704 C171.756,25.704 173.324,24.808 173.996,22.792 L176.684,23.492 C175.928,26.488 173.128,28.392 169.908,28.392 C165.932,28.392 162.572,25.452 162.572,21.056 C162.572,16.716 165.932,13.72 169.908,13.72 C173.044,13.72 175.816,15.624 176.684,18.592 L173.884,19.404 C173.352,17.36 171.756,16.408 169.908,16.408 C167.332,16.408 165.428,18.312 165.428,21.056 C165.428,23.884 167.332,25.704 169.908,25.704 Z M186.204,13.804 C190.292,13.804 193.624,16.744 193.624,21.056 C193.624,25.368 190.292,28.336 186.204,28.336 C182.088,28.336 178.728,25.368 178.728,21.056 C178.728,16.744 182.088,13.804 186.204,13.804 Z M186.204,25.816 C188.584,25.816 190.796,23.94 190.796,21.056 C190.796,18.172 188.584,16.296 186.204,16.296 C183.768,16.296 181.584,18.172 181.584,21.056 C181.584,23.94 183.768,25.816 186.204,25.816 Z" id="San-Francisco"></path>
            <path d="M275.662,9.24 L275.662,28 L273.114,28 L261.774,14.532 L261.774,28 L258.778,28 L258.778,9.24 L261.326,9.24 L272.638,22.932 L272.638,9.24 L275.662,9.24 Z M293.022,20.748 L293.022,21.756 L281.766,21.756 C282.046,24.332 283.922,25.872 285.966,25.872 C287.506,25.872 289.074,25.424 290.054,23.464 L292.658,24.024 C291.51,26.936 289.046,28.392 285.966,28.392 C282.186,28.392 278.882,25.48 278.882,21.084 C278.882,16.66 282.158,13.72 286.078,13.72 C289.802,13.72 292.882,16.576 293.022,20.748 Z M286.078,16.296 C284.258,16.296 282.298,17.444 281.85,19.684 L290.026,19.684 C289.578,17.416 287.982,16.296 286.078,16.296 Z M315.31,14.112 L310.662,28.056 L308.002,28.056 L304.81,18.704 L301.618,28.056 L298.958,28.056 L294.31,14.112 L297.222,14.112 L300.386,23.772 L303.662,14.112 L305.958,14.112 L309.234,23.772 L312.398,14.112 L315.31,14.112 Z M333.594,21.728 L333.594,28 L330.598,28 L330.598,21.784 L323.01,9.24 L326.342,9.24 L332.11,18.648 L337.85,9.24 L341.294,9.24 L333.594,21.728 Z M346.81,13.804 C350.898,13.804 354.23,16.744 354.23,21.056 C354.23,25.368 350.898,28.336 346.81,28.336 C342.694,28.336 339.334,25.368 339.334,21.056 C339.334,16.744 342.694,13.804 346.81,13.804 Z M346.81,25.816 C349.19,25.816 351.402,23.94 351.402,21.056 C351.402,18.172 349.19,16.296 346.81,16.296 C344.374,16.296 342.19,18.172 342.19,21.056 C342.19,23.94 344.374,25.816 346.81,25.816 Z M365.682,13.944 C366.018,13.944 366.298,13.944 366.662,14.056 L366.466,16.856 C366.242,16.828 365.906,16.828 365.654,16.828 C362.126,16.828 360.39,19.292 360.39,23.1 L360.39,28 L357.478,28 L357.478,14.112 L360.39,14.112 L360.39,17.08 C361.51,15.232 363.274,13.944 365.682,13.944 Z M383.35,28 L379.402,28 L372.99,22.232 L372.15,22.232 L372.15,28 L369.238,28 L369.238,7.84 L372.15,7.84 L372.15,19.348 L373.018,19.348 L378.814,14.112 L382.538,14.112 L375.258,20.832 L383.35,28 Z" id="New-York"></path>
            <path d="M476.746,9.24 L476.746,28 L473.834,28 L473.834,15.596 L467.198,28 L465.77,28 L459.106,15.596 L459.106,28 L456.194,28 L456.194,9.24 L458.826,9.24 L466.47,23.436 L474.142,9.24 L476.746,9.24 Z M482.85,8.12 C483.914,8.12 484.698,8.96 484.698,9.94 C484.698,10.976 483.914,11.732 482.85,11.732 C481.758,11.732 480.974,10.976 480.974,9.94 C480.974,8.96 481.758,8.12 482.85,8.12 Z M484.306,28 L481.394,28 L481.394,14.112 L484.306,14.112 L484.306,28 Z M502.506,14.112 L502.506,28 L499.594,28 L499.594,26.404 C498.39,27.664 496.654,28.392 494.554,28.392 C490.914,28.392 487.666,25.452 487.666,21.056 C487.666,16.688 490.914,13.72 494.554,13.72 C496.654,13.72 498.39,14.448 499.594,15.708 L499.594,14.112 L502.506,14.112 Z M495.03,25.816 C497.326,25.816 499.594,23.996 499.594,21.056 C499.594,18.144 497.326,16.296 495.03,16.296 C492.482,16.296 490.494,18.144 490.494,21.056 C490.494,23.996 492.482,25.816 495.03,25.816 Z M524.094,13.72 C526.978,13.72 529.358,15.876 529.358,19.152 L529.358,28 L526.474,28 L526.474,19.74 C526.474,17.696 525.13,16.408 523.338,16.408 C521.07,16.408 519.586,18.004 519.586,21.112 L519.586,28 L516.674,28 L516.674,19.74 C516.674,17.696 515.33,16.408 513.538,16.408 C511.298,16.408 509.842,18.004 509.842,21.112 L509.842,28 L506.93,28 L506.93,14.112 L509.842,14.112 L509.842,15.68 C510.85,14.448 512.306,13.72 514.294,13.72 C516.282,13.72 518.018,14.644 518.914,16.268 C520.034,14.7 521.798,13.72 524.094,13.72 Z M535.154,8.12 C536.218,8.12 537.002,8.96 537.002,9.94 C537.002,10.976 536.218,11.732 535.154,11.732 C534.062,11.732 533.278,10.976 533.278,9.94 C533.278,8.96 534.062,8.12 535.154,8.12 Z M536.61,28 L533.698,28 L533.698,14.112 L536.61,14.112 L536.61,28 Z" id="Miami"></path>
            <path d="M625.38,25.284 L625.38,28 L612.136,28 L612.136,9.24 L615.132,9.24 L615.132,25.284 L625.38,25.284 Z M634.9,13.804 C638.988,13.804 642.32,16.744 642.32,21.056 C642.32,25.368 638.988,28.336 634.9,28.336 C630.784,28.336 627.424,25.368 627.424,21.056 C627.424,16.744 630.784,13.804 634.9,13.804 Z M634.9,25.816 C637.28,25.816 639.492,23.94 639.492,21.056 C639.492,18.172 637.28,16.296 634.9,16.296 C632.464,16.296 630.28,18.172 630.28,21.056 C630.28,23.94 632.464,25.816 634.9,25.816 Z M653.296,13.72 C656.628,13.72 658.868,16.128 658.868,19.6 L658.868,28 L655.928,28 L655.928,20.188 C655.928,17.92 654.612,16.408 652.624,16.408 C650.132,16.408 648.48,18.088 648.48,21.588 L648.48,28 L645.568,28 L645.568,14.112 L648.48,14.112 L648.48,15.82 C649.6,14.476 651.224,13.72 653.296,13.72 Z M676.592,7.84 L676.592,28 L673.652,28 L673.652,26.432 C672.42,27.664 670.712,28.392 668.612,28.392 C665,28.392 661.724,25.452 661.724,21.056 C661.724,16.688 665,13.72 668.612,13.72 C670.712,13.72 672.42,14.448 673.652,15.708 L673.652,7.84 L676.592,7.84 Z M669.088,25.816 C671.412,25.816 673.652,23.996 673.652,21.056 C673.652,18.144 671.412,16.296 669.088,16.296 C666.568,16.296 664.58,18.144 664.58,21.056 C664.58,23.996 666.568,25.816 669.088,25.816 Z M687.26,13.804 C691.348,13.804 694.68,16.744 694.68,21.056 C694.68,25.368 691.348,28.336 687.26,28.336 C683.144,28.336 679.784,25.368 679.784,21.056 C679.784,16.744 683.144,13.804 687.26,13.804 Z M687.26,25.816 C689.64,25.816 691.852,23.94 691.852,21.056 C691.852,18.172 689.64,16.296 687.26,16.296 C684.824,16.296 682.64,18.172 682.64,21.056 C682.64,23.94 684.824,25.816 687.26,25.816 Z M705.656,13.72 C708.988,13.72 711.228,16.128 711.228,19.6 L711.228,28 L708.288,28 L708.288,20.188 C708.288,17.92 706.972,16.408 704.984,16.408 C702.492,16.408 700.84,18.088 700.84,21.588 L700.84,28 L697.928,28 L697.928,14.112 L700.84,14.112 L700.84,15.82 C701.96,14.476 703.584,13.72 705.656,13.72 Z" id="London"></path>
        </g>
        <g transform="translate(64.000000, 0.000000)">
            <polygon id="Path" fill="#DCDBDB" points="584.181818 55.3880535 528.814769 0 522 6.81735412 546.28793 31.1144986 522 55.3880535 528.814769 62.1818182 553.102699 37.9082632 577.367049 62.1818182"></polygon>
            <polygon id="Rectangle" fill="#2BACE2" transform="translate(570.521969, 13.367656) rotate(-45.000000) translate(-570.521969, -13.367656) " points="556.438292 8.5885941 584.612865 8.56736232 584.605646 18.1467169 556.431073 18.1679487"></polygon>
            <path d="M61.992281,61.8727273 L10.7792374,61.8727273 L10.7792374,90 L0,90 L0,52.1818182 C0,41.6084848 2.18540095,34.5175758 6.55620285,30.9090909 C10.3825988,27.7575758 17.6620838,26.1818182 28.3946579,26.1818182 L44.3301972,26.1818182 C54.8761178,26.1818182 62.1089394,27.8127273 66.0753255,30.9090909 C70.5550086,34.5490909 72.8181818,41.5690909 72.8181818,52.0163636 L72.8181818,89.8345455 L61.992281,89.8345455 L61.992281,61.8727273 Z M10.7792374,52.2290909 L62.1089394,52.2290909 C62.1089394,44.9727273 60.5923801,40.4109091 57.7225831,38.3072727 C55.3894148,36.7315152 50.4275436,35.9436364 42.8369695,35.9436364 L30.004544,35.9436364 C22.5384055,35.9436364 17.6387521,36.7945455 15.3055839,38.4963636 C12.2957968,40.5290909 10.8492325,45.1381818 10.7792374,52.2290909 Z" id="Shape" fill="#DCDBDB" fill-rule="nonzero"></path>
            <path d="M160.363636,69.9993701 C160.363636,78.3349245 157.813591,83.9520226 152.713501,86.8506646 C148.99371,88.9658899 142.653689,90 133.693439,90 L115.07109,90 C103.342442,90 95.5909282,87.7437597 91.8165493,83.2312792 C88.4476823,79.2671904 86.771047,71.2920078 86.7866436,59.3057314 C86.5246806,52.7286082 87.1304097,46.1455836 88.5880517,39.7281466 C90.0601039,34.2760066 94.1957892,29.952987 99.5602646,28.2589252 C104.972503,26.7086899 110.592873,26.0187728 116.217441,26.2142075 L133.599859,26.2142075 C142.380749,26.2142075 148.689576,27.2953226 152.526341,29.4575528 C157.696617,32.3483607 160.270057,37.8244438 160.270057,45.9093048 L149.274449,45.9093048 C149.274449,39.7046441 143.987199,36.5083037 133.248935,36.5083037 L116.31102,36.5083037 C107.842063,36.5083037 102.461233,38.0359664 100.168532,41.0912917 C98.4373089,43.441542 97.5716973,49.0351377 97.5716973,57.8720787 C97.4449406,62.2142888 97.6561376,66.5598107 98.2033598,70.8689627 C98.7345723,74.4236023 101.20005,77.3812657 104.59017,78.5307786 C108.058137,79.464711 111.647763,79.8609895 115.234854,79.7059038 L133.342515,79.7059038 C136.990571,79.891289 140.643798,79.4623246 144.150964,78.4367686 C147.640918,77.1561528 149.799366,73.6361901 149.368029,69.9288626 L160.363636,69.9993701 Z" id="Path" fill="#DCDBDB"></path>
            <path d="M244.636364,70.0000495 C244.636364,78.3431546 242.066029,83.960062 236.972092,86.8507716 C233.256789,88.965925 226.924419,90 217.998346,90 L199.305,90 C187.621659,90 179.863921,87.6498296 176.101885,83.2315091 C172.737083,79.267555 171.054682,71.2926432 171.054682,59.306774 C170.805217,52.7301997 171.410068,46.1489992 172.853916,39.7298541 C174.344219,34.2811813 178.478695,29.9635587 183.836257,28.2610224 C189.256497,26.703663 194.886599,26.0136781 200.520068,26.2163741 L217.904879,26.2163741 C226.675174,26.2163741 232.9686,27.2974525 236.785158,29.4596093 C241.949195,32.3503189 244.542897,37.8262161 244.542897,45.9108024 L233.560556,45.9108024 C233.560556,39.7063524 228.279686,36.5101206 217.531012,36.5101206 L200.613534,36.5101206 C192.154796,36.5101206 186.788248,38.0377314 184.513891,41.092953 C182.769178,43.4431234 181.896822,49.0365291 181.896822,57.87317 C181.770218,62.2152326 181.981161,66.5606069 182.527723,70.8696126 C183.05724,74.4322742 185.531914,77.3936077 188.930193,78.5311682 C192.385979,79.4652266 195.963602,79.8615147 199.538667,79.7062534 L217.624479,79.7062534 C221.268133,79.8916324 224.916953,79.4626826 228.419886,78.4371614 C231.914901,77.1650282 234.081739,73.6430284 233.654023,69.9295444 L244.636364,70.0000495 Z" id="Path" fill="#DCDBDB"></path>
            <path d="M330.545455,71.2249415 C330.545455,79.2322502 327.9308,84.5129998 322.701491,87.0671903 C318.674143,88.9945856 310.869204,89.9582832 299.286676,89.9582832 L285.237786,89.9582832 C279.740042,90.1479517 274.23909,89.6904066 268.847415,88.5950036 C263.418815,87.560446 258.895304,83.8088837 256.85903,78.6524647 C255.360482,74.6566452 254.517548,68.2163245 254.517548,59.2844928 C254.236214,52.4020462 254.898014,45.5134248 256.484393,38.8117944 C258.197832,33.3300562 262.635605,29.1425144 268.191801,27.7645289 C273.787776,26.5415783 279.514499,26.0282983 285.237786,26.2367156 L299.286676,26.2367156 C305.717978,25.9564439 312.15098,26.7507527 318.322921,28.5871977 C325.347365,31.0473688 329.249835,35.5446244 330.030329,42.0789644 C330.030329,43.1601862 330.264477,46.6153947 330.404966,52.468095 L330.404966,61.7054893 L264.609334,61.7054893 C264.609334,70.1202149 266.115687,75.4401392 269.128393,77.6652622 C271.547924,79.4046189 277.12065,80.2742973 285.846571,80.2742973 L299.122772,80.2742973 C304.290534,80.5108764 309.46823,80.1480698 314.553135,79.1930755 C318.219833,78.3547556 320.671109,74.8814245 320.242936,71.1309222 L330.545455,71.2249415 Z M320.336595,52.5621143 C320.227326,46.7642586 320.110252,43.5205934 319.985373,42.8311187 C319.376128,39.5997696 316.752065,37.1367928 313.499469,36.7433703 C308.733097,35.9647029 303.902084,35.6576676 299.075942,35.8266823 L286.057305,35.8266823 C277.456263,35.8266823 271.891341,36.649351 269.362541,38.2946884 C266.248371,40.3396078 264.679578,45.1110863 264.679578,52.5621143 L320.336595,52.5621143 Z" id="Shape" fill="#DCDBDB" fill-rule="nonzero"></path>
            <path d="M417.272727,71.2840909 C417.272727,78.2386364 415.469292,83.1791958 411.862422,86.1057692 C408.739591,88.7019231 403.602533,90 396.451249,90 L364.785739,90 C350.889139,90 343.972068,83.9737762 344.034525,71.9213287 L354.855135,71.9213287 C354.855135,77.5384615 358.789903,80.3706294 366.565753,80.3706294 L393.945177,80.3706294 C396.855518,80.5629796 399.767946,80.0278999 402.423664,78.8129371 C404.997917,77.2560853 406.448686,74.3414234 406.147641,71.3312937 C406.244992,67.3753321 403.559841,63.8992599 399.730222,63.0236014 C396.007246,61.9657885 392.142479,61.5038647 388.277238,61.6547203 C386.239591,61.6547203 383.19483,61.6547203 379.166378,61.8671329 C375.137925,62.0795455 372.140007,62.1031469 370.055517,62.1031469 C361.998612,62.1031469 356.002776,61.0882867 352.021166,59.1057692 C346.423491,56.3208042 343.636364,51.2701049 343.636364,44.0008741 C343.636364,37.4711538 345.556905,32.7508741 349.397988,29.840035 C352.692575,27.416958 357.743754,26.1975524 364.551527,26.1818182 L394.694656,26.1818182 C409.54372,26.1818182 416.968251,32.1844406 416.968251,44.1896853 L405.608952,44.1896853 C405.608952,38.6197552 401.635149,35.8347902 393.687543,35.8347902 L365.324427,35.8347902 C358.766482,35.8347902 355.487509,38.5725524 355.487509,44.0952797 C355.487509,49.618007 361.483345,52.7333916 373.451596,52.7333916 C375.301874,52.7333916 378.135843,52.6153846 381.789556,52.402972 C385.443269,52.1905594 388.277238,52.0961538 390.127516,52.0961538 C398.254684,52.0961538 404.43789,53.229021 408.723976,55.4711538 C414.438758,58.5865385 417.272727,63.826049 417.272727,71.2840909 Z" id="Path" fill="#DCDBDB"></path>
            <path d="M504.818182,71.2840909 C504.818182,78.2386364 503.014747,83.1791958 499.407876,86.1057692 C496.285045,88.7019231 491.14018,90 483.973282,90 L452.331194,90 C438.434594,90 431.517523,83.9737762 431.579979,71.9213287 L442.40059,71.9213287 C442.40059,77.5384615 446.311936,80.3706294 454.111207,80.3706294 L481.490632,80.3706294 C484.400805,80.5600483 487.312531,80.0250974 489.969119,78.8129371 C492.543372,77.2560853 493.99414,74.3414234 493.693095,71.3312937 C493.790447,67.3753321 491.105295,63.8992599 487.275677,63.0236014 C483.552701,61.9657885 479.687934,61.5038647 475.822693,61.6547203 C473.785045,61.6547203 470.740285,61.6547203 466.711832,61.8671329 C462.68338,62.0795455 459.685461,62.1031469 457.600972,62.1031469 C449.544067,62.1031469 443.54823,61.0882867 439.56662,59.1057692 C433.968945,56.3208042 431.181818,51.2701049 431.181818,44.0008741 C431.181818,37.4711538 433.102359,32.7508741 436.943442,29.840035 C440.253643,27.416958 445.304823,26.1975524 452.096981,26.1818182 L482.263532,26.1818182 C497.12821,26.1818182 504.560548,32.1844406 504.560548,44.1896853 L493.177828,44.1896853 C493.177828,38.6197552 489.211832,35.8347902 481.27984,35.8347902 L452.986988,35.8347902 C446.429042,35.8347902 443.150069,38.5725524 443.150069,44.0952797 C443.150069,49.618007 449.145906,52.7333916 461.090736,52.7333916 C462.964434,52.7333916 465.774983,52.6153846 469.452117,52.402972 C473.129251,52.1905594 475.916378,52.0961538 477.790076,52.0961538 C485.925052,52.0961538 492.116065,53.2211538 496.363116,55.4711538 C501.999827,58.5550699 504.818182,63.826049 504.818182,71.2840909 Z" id="Path" fill="#DCDBDB"></path>
        </g>
    </g>
</svg>