<svg height="33" viewBox="0 0 24 33" width="24" xmlns="http://www.w3.org/2000/svg"><g fill="#fff" transform=""><path d="m12 0c-6.61692757 0-12 5.29417969-12 11.8013027v9.3977168c0 6.5071231 5.38307243 11.8009805 12 11.8009805 6.6165282 0 12-5.2778086 12-11.7648867v-9.4338106c0-6.50712301-5.3834718-11.8013027-12-11.8013027zm9.7429025 21.2351133c0 5.2821914-4.370414 9.5794746-9.7429025 9.5794746-5.37215572 0-9.74290247-4.3136543-9.74290247-9.6158906v-9.3973946c0-5.30223629 4.37074675-9.61589059 9.74290247-9.61589059 5.3725551 0 9.7429025 4.3136543 9.7429025 9.61589059z"/><path d="m12 9.24c-.736424 0-1.3333333.42977929-1.3333333.9600103v3.3599794c0 .530231.5969093.9600103 1.3333333.9600103s1.3333333-.4297793 1.3333333-.9600103v-3.3599794c0-.53023101-.5969093-.9600103-1.3333333-.9600103z"/></g></svg>