<svg height="27" viewBox="0 0 27 27" width="27" xmlns="http://www.w3.org/2000/svg"><path d="m25.5012363 3.23567578c-1.8169101-1.81675195-4.6728457-1.97885742-6.6750644-.48594726-.603334-.44987696-1.2843457-.74835352-1.9909336-.89764454-.1699102-.43774804-.4452363-.83167382-.8054121-1.14386132-.5268164-.45673243-1.2012891-.70822266-1.8991231-.70822266h-5.48015623c-.00780468 0-.01560937.00010547-.02346679.00031641-.00216211 0-.00432422 0-.00648633 0-.7747207 0-1.50219141.30111328-2.0503125.84923437l-3.87508008 3.87502734c-.55597851.55597852-.8643164 1.32384375-.84833789 2.11042969-.00063281.02046094-.00116016.04102735-.00116016.06164649v11.6658457h-1.84570312v8.4375h15.8203125v-8.4375h-3.8579941l4.1401757-4.1393848 2.7236778 2.7234668 6.6750644-6.6745898c.9664629-.9664629 1.4987637-2.25138868 1.4987637-3.61815822 0-1.36676953-.5323008-2.65169531-1.4987637-3.6181582zm-11.2629551 16.90885542v5.2734375h-12.65624995v-5.2734375zm2.1393809-8.2336289-6.62180273 6.6205372v.0310605h-6.328125v-11.6641582l.00179297-.06175196-.00068554-.02199023c-.01075782-.36729492.12598242-.7122832.38501367-.97136719l3.87502734-3.87502734c.2512793-.25133203.58561524-.38917969.94167774-.38580469l.00495703.00005273h.00500976c.00685547-.00005273.01376368-.0001582.02072461-.00036914h5.46945115c.2746934 0 .5334082.08748633.7480899.23630274-.999791.17528906-1.9572364.64699805-2.7276856 1.4173418-.2994258.29942578-.5571387.62954296-.770291.98307421h-2.21352538l-3.1028379 3.10273243v2.84095894c0 1.3084981 1.06454883 2.3730469 2.37304688 2.3730469h2.8409062l2.8342618-2.83431444c.6218437-.62184375 1.6290703-.64283203 2.2454824-.04677539.3077578.29768555.47925.69704293.4827832 1.12450783.0035859.427623-.1609453.8296699-.4632715 1.1319433zm-4.7123437-1.99958199-1.0421895 1.04218949h-2.1856289c-.43616602 0-.79101562-.3548496-.79101562-.7910157v-2.18562887l2.17608398-2.17608398h.93798634c-.0712969.34261523-.108211.69493359-.108211 1.05305273 0 1.11686133.3555879 2.17903711 1.0129747 3.05748633zm12.7172636-.55803515-5.5564101 5.55609374-1.6048653-1.6048125.2750098-.274957c.6047051-.6046524.9337676-1.4086407.9266484-2.2638867-.0071718-.8550352-.3498398-1.65353911-.9649863-2.24848833-1.2329824-1.19248242-3.2354648-1.1631621-4.4639121.0653379l-.192375.192375c-.3687715-.56710547-.5672637-1.22871094-.5672637-1.92116602 0-.94415625.3677168-1.83183398 1.0353868-2.49945117 1.3773691-1.37726367 3.6192128-1.37816016 4.9975312-.00189844l.5588262.55819336.5589316-.55814063c1.3782656-1.37620898 3.6200567-1.37541796 4.9975313.00189844.6676172.66761719 1.0353339 1.55524219 1.0353339 2.49945117 0 .94420899-.3677167 1.83183399-1.0353867 2.49945118z" fill="#fff" transform=""/></svg>