<svg height="46" viewBox="0 0 48 46" width="48" xmlns="http://www.w3.org/2000/svg"><g fill="#fff" transform=""><path d="m45.5342822.39274377-44.21717193 23.21988903c-1.81890738.9546515-1.74428554 2.3539351.16416805 3.1105572l5.64514228 2.2343702c1.9047225.7547538 4.7925877.3456174 6.4118817-.9228921l24.5170059-19.3601826c1.6118318-1.27224591 1.7853276-1.08355746.3843025.41847736l-19.3830232 20.78001654c-1.4047562 1.4964302-.9868739 3.3310051.9234452 4.0764179l.6604033.2596801c1.9103192.7398082 5.0332432 1.9840311 6.9342346 2.7612033l6.2607725 2.5519647c1.9028569.775304 3.4587223 1.4179657 3.4587223 1.4291749s.0111933.046705.020521.0485732c.0093278.0037364.4589244-1.6141269.9962016-3.598158l9.5478646-35.13528461c.5372773-1.98589927-.505563-2.8265904-2.3244704-1.87380712z"/><path d="m19.94124 35.9913248-4.5300878-1.7214666c-1.9860591-.7556332-2.9381189.1304691-2.1148213 1.9733443.0019509 0 4.2062313 9.411892 4.0891748 9.7435009-.1209584.3297967 4.0345484-5.5848 4.0345484-5.5848 1.1744672-1.6707286.507245-3.6549454-1.4788141-4.4105786z"/></g></svg>