<svg height="50" viewBox="0 0 65 50" width="65" xmlns="http://www.w3.org/2000/svg"><path d="m169 2486.4c3.33335 2.26668 5 5.66664 5 10.2 0 4.40002-1.399986 8.06665-4.2 11s-6.266646 4.4-10.4 4.4c-3.466684 0-6.366655-1.09999-8.7-3.3s-3.5-5.23331-3.5-9.1c0-2.26668.399996-4.39999 1.2-6.4s1.933326-4.13332 3.4-6.4l14.6-24.2h13.2zm31.8 0c3.33335 2.26668 5 5.66664 5 10.2 0 4.40002-1.399986 8.06665-4.2 11s-6.266646 4.4-10.4 4.4c-3.466684 0-6.366655-1.09999-8.7-3.3s-3.5-5.23331-3.5-9.1c0-2.26668.399996-4.39999 1.2-6.4s1.933326-4.13332 3.4-6.4l14.6-24.2h13.2z" fill="#fff" fill-rule="evenodd" opacity=".3" transform="translate(-147 -2462)"/></svg>