<?xml version="1.0" encoding="UTF-8"?>
<svg width="51px" height="43px" viewBox="0 0 51 43" version="1.1" xmlns="http://www.w3.org/2000/svg" xmlns:xlink="http://www.w3.org/1999/xlink">
    <!-- Generator: Sketch 51.3 (57544) - http://www.bohemiancoding.com/sketch -->
    <title>“</title>
    <desc>Created with Sketch.</desc>
    <defs></defs>
    <g id="Design" stroke="none" stroke-width="1" fill="none" fill-rule="evenodd" opacity="0.100000001">
        <g id="Tracing-Voices-Copy-2" transform="translate(-117.000000, -2292.000000)" fill="#000000">
            <g id="Group-10" transform="translate(-1.000000, 0.000000)">
                <path d="M133.8,2314.6 C135.666676,2315.53334 137.066662,2316.83333 138,2318.5 C138.933338,2320.16667 139.4,2321.99999 139.4,2324 C139.4,2327.20002 138.366677,2329.83332 136.3,2331.9 C134.233323,2333.96668 131.666682,2335 128.6,2335 C125.666652,2335 123.166677,2334.00001 121.1,2332 C119.033323,2329.99999 118,2327.33335 118,2324 C118,2322.53333 118.299997,2321.00001 118.9,2319.4 C119.500003,2317.79999 120.13333,2316.26667 120.8,2314.8 L131.6,2292 L141.8,2292 L133.8,2314.6 Z M161,2314.6 C162.866676,2315.53334 164.266662,2316.83333 165.2,2318.5 C166.133338,2320.16667 166.6,2321.99999 166.6,2324 C166.6,2327.20002 165.566677,2329.83332 163.5,2331.9 C161.433323,2333.96668 158.866682,2335 155.8,2335 C152.866652,2335 150.366677,2334.00001 148.3,2332 C146.233323,2329.99999 145.2,2327.33335 145.2,2324 C145.2,2322.53333 145.499997,2321.00001 146.1,2319.4 C146.700003,2317.79999 147.33333,2316.26667 148,2314.8 L158.8,2292 L169,2292 L161,2314.6 Z" id="“"></path>
            </g>
        </g>
    </g>
</svg>