<svg height="20" viewBox="0 0 207 20" width="207" xmlns="http://www.w3.org/2000/svg"><path d="m15.5644531 9.60058594h-5.66210935v15.39941406h-3.80859375v-15.39941406h-5.5859375v-3.08496094h15.0566406zm9.0136719 8.63281246h-3.0341797v6.7666016h-3.8085937v-18.484375h6.868164c2.1836047 0 3.8678326.48664878 5.0527344 1.45996094s1.7773438 2.34862396 1.7773438 4.12597656c0 1.261074-.2729465 2.3126585-.8188477 3.1547852-.5459012.8421266-1.3732041 1.5128555-2.4819336 2.012207l3.9990234 7.5537109v.1777344h-4.0878906zm-3.0341797-3.0849609h3.0722656c.956385 0 1.6969375-.2433244 2.2216797-.7299805.5247422-.486656.7871094-1.157385.7871094-2.012207 0-.8717492-.2475561-1.5572892-.7426758-2.0566406-.4951196-.49935148-1.2547149-.74902346-2.2788086-.74902346h-3.0595703zm23.2197266 6.0429687h-6.6777344l-1.2695313 3.8085938h-4.0498046l6.8808593-18.484375h3.5292969l6.9189453 18.484375h-4.0498047zm-5.6494141-3.0849609h4.6210938l-2.3232422-6.9189453zm26.9521484.7363281c-.1438809 1.9889423-.8780858 3.5546818-2.2026367 4.6972657-1.3245509 1.1425838-3.0701389 1.7138671-5.2368164 1.7138671-2.3698035 0-4.2338799-.7976808-5.5922851-2.3930664-1.3584053-1.5953855-2.0375977-3.785305-2.0375977-6.5698242v-1.1298828c0-1.7773526.3131479-3.3430922.9394531-4.6972656.6263053-1.35417345 1.5213158-2.3930628 2.6850586-3.11669923s2.5157801-1.08544922 4.0561524-1.08544922c2.1328231 0 3.8509049.57128335 5.1542968 1.71386719 1.303392 1.14258384 2.0566397 2.74640896 2.2597657 4.81152346h-3.8085938c-.0930994-1.1933654-.4252901-2.0587538-.996582-2.5961914-.5712919-.53743761-1.4409121-.80615238-2.6088867-.80615238-1.2695376 0-2.2195607.45491082-2.8500977 1.36474608-.630537.9098353-.9542642 2.3211168-.9711914 4.2338867v1.3964844c0 1.9974058.3025686 3.4573522.9077149 4.3798828.6051462.9225307 1.559401 1.3837891 2.8627929 1.3837891 1.1764382 0 2.0545219-.2687148 2.6342774-.8061524.5797555-.5374375.9119462-1.3689722.996582-2.4946289zm6.5507813 6.1572266h-3.8085937v-18.484375h3.8085937zm18.5605469 0h-3.8085938l-7.4140625-12.1621094v12.1621094h-3.8085937v-18.484375h3.8085937l7.4267578 12.1875v-12.1875h3.7958985zm17.9511716-2.3359375c-.68555.8209676-1.654616 1.4578428-2.907226 1.9106445-1.252611.4528018-2.640618.6791992-4.164063.6791992-1.599617 0-3.0024352-.3491176-4.2084959-1.0473632-1.2060607-.6982457-2.137041-1.7117447-2.7929688-3.0405274-.6559277-1.3287827-.9923501-2.8902905-1.0092773-4.6845703v-1.2568359c0-1.8450613.311032-3.4425388.9331055-4.7924805.6220734-1.34994164 1.5191998-2.3824834 2.6914062-3.09765624 1.1722064-.71517285 2.5454023-1.07275391 4.1196293-1.07275391 2.192068 0 3.905918.52261847 5.141601 1.56787109 1.235683 1.04525263 1.967772 2.56655906 2.196289 4.56396486h-3.707031c-.169272-1.057948-.54378-1.8323543-1.123535-2.3232422-.579756-.49088787-1.377436-.73632812-2.393067-.73632812-1.294928 0-2.2809207.48664877-2.9580074 1.45996092-.6770867.9733122-1.0198567 2.4205633-1.0283203 4.3417969v1.180664c0 1.9381608.3681604 3.4023388 1.1044922 4.3925782.7363318.9902393 1.8154225 1.4853515 3.2373045 1.4853515 1.430346 0 2.450192-.3046844 3.05957-.9140625v-3.1865234h-3.46582v-2.8056641h7.274414zm16.389649-2.2470703 4.189453-13.9013672h4.240234l-6.436523 18.484375h-3.973633l-6.411133-18.484375h4.227539zm25.1875-4.2402344c0 1.8196706-.321612 3.4150322-.964844 4.7861328s-1.563633 2.4290328-2.761231 3.1738282c-1.197597.7447953-2.570793 1.1171874-4.119628 1.1171874-1.531909 0-2.898757-.3681603-4.100586-1.1044921s-2.13281-1.7879164-2.792969-3.1547852c-.66016-1.3668688-.994466-2.938956-1.00293-4.7163086v-.9140625c0-1.8196705.327959-3.4213798.983887-4.8051758.655928-1.38379595 1.582676-2.44595981 2.780273-3.18652341 1.197597-.74056359 2.566562-1.11083984 4.106934-1.11083984s2.909336.37027625 4.106934 1.11083984c1.197597.7405636 2.124345 1.80272746 2.780273 3.18652341.655928 1.383796.983887 2.9812735.983887 4.7924805zm-3.859375-.8378906c0-1.9381607-.347002-3.4108023-1.041016-4.4179688-.694014-1.00716646-1.684238-1.51074215-2.970703-1.51074215-1.278001 0-2.263994.4972281-2.958008 1.49169925-.694014.9944711-1.045247 2.4523016-1.053711 4.3735351v.9013672c0 1.8873792.347002 3.3515573 1.041016 4.3925781.694014 1.0410209 1.692702 1.5615235 2.996094 1.5615235 1.278001 0 2.259762-.5014599 2.945312-1.5043946s1.032552-2.4649969 1.041016-4.3862304zm10.676758 9.6611328h-3.808594v-18.484375h3.808594zm18.040039-6.1572266c-.143881 1.9889423-.878086 3.5546818-2.202637 4.6972657-1.324551 1.1425838-3.070139 1.7138671-5.236817 1.7138671-2.369803 0-4.233879-.7976808-5.592285-2.3930664-1.358405-1.5953855-2.037597-3.785305-2.037597-6.5698242v-1.1298828c0-1.7773526.313148-3.3430922.939453-4.6972656.626305-1.35417345 1.521316-2.3930628 2.685058-3.11669923 1.163743-.72363643 2.51578-1.08544922 4.056153-1.08544922 2.132823 0 3.850905.57128335 5.154297 1.71386719 1.303391 1.14258384 2.056639 2.74640896 2.259765 4.81152346h-3.808594c-.093099-1.1933654-.42529-2.0587538-.996582-2.5961914-.571292-.53743761-1.440912-.80615238-2.608886-.80615238-1.269538 0-2.219561.45491082-2.850098 1.36474608-.630537.9098353-.954264 2.3211168-.971191 4.2338867v1.3964844c0 1.9974058.302568 3.4573522.907714 4.3798828.605147.9225307 1.559402 1.3837891 2.862793 1.3837891 1.176439 0 2.054522-.2687148 2.634278-.8061524.579755-.5374375.911946-1.3689722.996582-2.4946289zm13.62207-1.8535156h-7.3125v4.9511719h8.582031v3.0595703h-12.390625v-18.484375h12.365235v3.08496094h-8.556641v4.40527346h7.3125zm13.088867 3.1611328c0-.7194046-.253904-1.2716452-.761719-1.6567383-.507815-.385093-1.421868-.791339-2.742187-1.21875-1.320319-.4274109-2.365556-.8484679-3.135742-1.2631835-2.098969-1.1341203-3.148438-2.6617743-3.148438-4.5830079 0-.9987029.28141-1.88948173.844238-2.67236324.562829-.78288152 1.371089-1.39436629 2.424805-1.83447266s2.236484-.66015625 3.54834-.66015625c1.320319 0 2.49674.23909266 3.529297.71728516 1.032557.47819249 1.83447 1.15315319 2.405762 2.02490234.571291.87174915.856933 1.86197365.856933 2.97070315h-3.808594c0-.8463584-.266599-1.5043922-.799804-1.9741211-.533206-.46972893-1.282222-.70458986-2.247071-.70458986-.930994 0-1.654619.19677537-2.170898.59033203-.516279.39355663-.774414.91194343-.774414 1.55517573 0 .6009145.302568 1.1044902.907715 1.5107422.605146.4062521 1.495925.7871076 2.672363 1.1425782 2.166677.6516959 3.745112 1.4599561 4.735352 2.4248046.990239.9648486 1.485351 2.1666595 1.485351 3.6054688 0 1.5996174-.605137 2.8543249-1.81543 3.7641602-1.210292.9098352-2.839508 1.364746-4.887695 1.364746-1.421882 0-2.716791-.2602513-3.884766-.7807617-1.167974-.5205104-2.058753-1.2335566-2.672363-2.1391601s-.92041-1.9550722-.92041-3.1484375h3.821289c0 2.0397237 1.218738 3.0595703 3.65625 3.0595703.905604 0 1.612302-.1840802 2.120117-.5522461s.761719-.8823209.761719-1.5424805z" fill="#fff" fill-rule="evenodd" transform="translate(0 -6)"/></svg>