<?xml version="1.0" encoding="UTF-8"?>
<svg width="207px" height="20px" viewBox="0 0 207 20" version="1.1" xmlns="http://www.w3.org/2000/svg" xmlns:xlink="http://www.w3.org/1999/xlink">
    <!-- Generator: Sketch 52.3 (67297) - http://www.bohemiancoding.com/sketch -->
    <title>tracing-logo-dark</title>
    <desc>Created with Sketch.</desc>
    <g id="Page-2" stroke="none" stroke-width="1" fill="none" fill-rule="evenodd">
        <g id="tracing-logo-dark" fill="#000000">
            <path d="M15.5644531,3.60058594 L9.90234375,3.60058594 L9.90234375,19 L6.09375,19 L6.09375,3.60058594 L0.5078125,3.60058594 L0.5078125,0.515625 L15.5644531,0.515625 L15.5644531,3.60058594 Z M24.578125,12.2333984 L21.5439453,12.2333984 L21.5439453,19 L17.7353516,19 L17.7353516,0.515625 L24.6035156,0.515625 C26.7871203,0.515625 28.4713482,1.00227378 29.65625,1.97558594 C30.8411518,2.9488981 31.4335938,4.3242099 31.4335938,6.1015625 C31.4335938,7.3626365 31.1606473,8.414221 30.6147461,9.2563477 C30.0688449,10.0984743 29.241542,10.7692032 28.1328125,11.2685547 L32.1318359,18.8222656 L32.1318359,19 L28.0439453,19 L24.578125,12.2333984 Z M21.5439453,9.1484375 L24.6162109,9.1484375 C25.5725959,9.1484375 26.3131484,8.9051131 26.8378906,8.418457 C27.3626328,7.931801 27.625,7.261072 27.625,6.40625 C27.625,5.5345008 27.3774439,4.8489608 26.8823242,4.3496094 C26.3872046,3.85025792 25.6276093,3.60058594 24.6035156,3.60058594 L21.5439453,3.60058594 L21.5439453,9.1484375 Z M44.7636719,15.1914062 L38.0859375,15.1914062 L36.8164062,19 L32.7666016,19 L39.6474609,0.515625 L43.1767578,0.515625 L50.0957031,19 L46.0458984,19 L44.7636719,15.1914062 Z M39.1142578,12.1064453 L43.7353516,12.1064453 L41.4121094,5.1875 L39.1142578,12.1064453 Z M66.0664062,12.8427734 C65.9225253,14.8317157 65.1883204,16.3974552 63.8637695,17.5400391 C62.5392186,18.6826229 60.7936306,19.2539062 58.6269531,19.2539062 C56.2571496,19.2539062 54.3930732,18.4562254 53.034668,16.8608398 C51.6762627,15.2654543 50.9970703,13.0755348 50.9970703,10.2910156 L50.9970703,9.1611328 C50.9970703,7.3837802 51.3102182,5.8180406 51.9365234,4.4638672 C52.5628287,3.10969375 53.4578392,2.0708044 54.621582,1.34716797 C55.7853248,0.62353154 57.1373621,0.26171875 58.6777344,0.26171875 C60.8105575,0.26171875 62.5286393,0.8330021 63.8320312,1.97558594 C65.1354232,3.11816978 65.8886709,4.7219949 66.0917969,6.7871094 L62.2832031,6.7871094 C62.1901037,5.593744 61.857913,4.7283556 61.2866211,4.190918 C60.7153292,3.65348039 59.845709,3.38476562 58.6777344,3.38476562 C57.4081968,3.38476562 56.4581737,3.83967644 55.8276367,4.7495117 C55.1970997,5.659347 54.8733725,7.0706285 54.8564453,8.9833984 L54.8564453,10.3798828 C54.8564453,12.3772886 55.1590139,13.837235 55.7641602,14.7597656 C56.3693064,15.6822963 57.3235612,16.1435547 58.6269531,16.1435547 C59.8033913,16.1435547 60.681475,15.8748399 61.2612305,15.3374023 C61.840986,14.7999648 62.1731767,13.9684301 62.2578125,12.8427734 L66.0664062,12.8427734 Z M72.6171875,19 L68.8085938,19 L68.8085938,0.515625 L72.6171875,0.515625 L72.6171875,19 Z M91.1777344,19 L87.3691406,19 L79.9550781,6.8378906 L79.9550781,19 L76.1464844,19 L76.1464844,0.515625 L79.9550781,0.515625 L87.3818359,12.703125 L87.3818359,0.515625 L91.1777344,0.515625 L91.1777344,19 Z M109.128906,16.6640625 C108.443356,17.4850301 107.47429,18.1219053 106.22168,18.574707 C104.969069,19.0275088 103.581062,19.2539062 102.057617,19.2539062 C100.458,19.2539062 99.0551818,18.9047886 97.8491211,18.206543 C96.6430604,17.5082973 95.7120801,16.4947983 95.0561523,15.1660156 C94.4002246,13.8372329 94.0638022,12.2757251 94.046875,10.4814453 L94.046875,9.2246094 C94.046875,7.3795481 94.357907,5.7820706 94.9799805,4.4321289 C95.6020539,3.08218726 96.4991803,2.0496455 97.6713867,1.33447266 C98.8435931,0.61929981 100.216789,0.26171875 101.791016,0.26171875 C103.983084,0.26171875 105.696934,0.78433722 106.932617,1.82958984 C108.1683,2.87484247 108.900389,4.3961489 109.128906,6.3935547 L105.421875,6.3935547 C105.252603,5.3356067 104.878095,4.5612004 104.29834,4.0703125 C103.718584,3.57942463 102.920904,3.33398438 101.905273,3.33398438 C100.610345,3.33398438 99.6243523,3.82063315 98.9472656,4.7939453 C98.2701789,5.7672575 97.9274089,7.2145086 97.9189453,9.1357422 L97.9189453,10.3164062 C97.9189453,12.254567 98.2871057,13.718745 99.0234375,14.7089844 C99.7597693,15.6992237 100.83886,16.1943359 102.260742,16.1943359 C103.691088,16.1943359 104.710934,15.8896515 105.320312,15.2802734 L105.320312,12.09375 L101.854492,12.09375 L101.854492,9.2880859 L109.128906,9.2880859 L109.128906,16.6640625 Z M125.518555,14.4169922 L129.708008,0.515625 L133.948242,0.515625 L127.511719,19 L123.538086,19 L117.126953,0.515625 L121.354492,0.515625 L125.518555,14.4169922 Z M150.706055,10.1767578 C150.706055,11.9964284 150.384443,13.59179 149.741211,14.9628906 C149.097979,16.3339912 148.177578,17.3919234 146.97998,18.1367188 C145.782383,18.8815141 144.409187,19.2539062 142.860352,19.2539062 C141.328443,19.2539062 139.961595,18.8857459 138.759766,18.1494141 C137.557937,17.4130823 136.626956,16.3614977 135.966797,14.9946289 C135.306637,13.6277601 134.972331,12.0556729 134.963867,10.2783203 L134.963867,9.3642578 C134.963867,7.5445873 135.291826,5.942878 135.947754,4.559082 C136.603682,3.17528605 137.53043,2.11312219 138.728027,1.37255859 C139.925624,0.631995 141.294589,0.26171875 142.834961,0.26171875 C144.375333,0.26171875 145.744297,0.631995 146.941895,1.37255859 C148.139492,2.11312219 149.06624,3.17528605 149.722168,4.559082 C150.378096,5.942878 150.706055,7.5403555 150.706055,9.3515625 L150.706055,10.1767578 Z M146.84668,9.3388672 C146.84668,7.4007065 146.499678,5.9280649 145.805664,4.9208984 C145.11165,3.91373194 144.121426,3.41015625 142.834961,3.41015625 C141.55696,3.41015625 140.570967,3.90738435 139.876953,4.9018555 C139.182939,5.8963266 138.831706,7.3541571 138.823242,9.2753906 L138.823242,10.1767578 C138.823242,12.064137 139.170244,13.5283151 139.864258,14.5693359 C140.558272,15.6103568 141.55696,16.1308594 142.860352,16.1308594 C144.138353,16.1308594 145.120114,15.6293995 145.805664,14.6264648 C146.491214,13.6235301 146.838216,12.1614679 146.84668,10.2402344 L146.84668,9.3388672 Z M157.523438,19 L153.714844,19 L153.714844,0.515625 L157.523438,0.515625 L157.523438,19 Z M175.563477,12.8427734 C175.419596,14.8317157 174.685391,16.3974552 173.36084,17.5400391 C172.036289,18.6826229 170.290701,19.2539062 168.124023,19.2539062 C165.75422,19.2539062 163.890144,18.4562254 162.531738,16.8608398 C161.173333,15.2654543 160.494141,13.0755348 160.494141,10.2910156 L160.494141,9.1611328 C160.494141,7.3837802 160.807289,5.8180406 161.433594,4.4638672 C162.059899,3.10969375 162.95491,2.0708044 164.118652,1.34716797 C165.282395,0.62353154 166.634432,0.26171875 168.174805,0.26171875 C170.307628,0.26171875 172.02571,0.8330021 173.329102,1.97558594 C174.632493,3.11816978 175.385741,4.7219949 175.588867,6.7871094 L171.780273,6.7871094 C171.687174,5.593744 171.354983,4.7283556 170.783691,4.190918 C170.212399,3.65348039 169.342779,3.38476562 168.174805,3.38476562 C166.905267,3.38476562 165.955244,3.83967644 165.324707,4.7495117 C164.69417,5.659347 164.370443,7.0706285 164.353516,8.9833984 L164.353516,10.3798828 C164.353516,12.3772886 164.656084,13.837235 165.26123,14.7597656 C165.866377,15.6822963 166.820632,16.1435547 168.124023,16.1435547 C169.300462,16.1435547 170.178545,15.8748399 170.758301,15.3374023 C171.338056,14.7999648 171.670247,13.9684301 171.754883,12.8427734 L175.563477,12.8427734 Z M189.185547,10.9892578 L181.873047,10.9892578 L181.873047,15.9404297 L190.455078,15.9404297 L190.455078,19 L178.064453,19 L178.064453,0.515625 L190.429688,0.515625 L190.429688,3.60058594 L181.873047,3.60058594 L181.873047,8.0058594 L189.185547,8.0058594 L189.185547,10.9892578 Z M202.274414,14.1503906 C202.274414,13.430986 202.02051,12.8787454 201.512695,12.4936523 C201.00488,12.1085593 200.090827,11.7023133 198.770508,11.2749023 C197.450189,10.8474914 196.404952,10.4264344 195.634766,10.0117188 C193.535797,8.8775985 192.486328,7.3499445 192.486328,5.4287109 C192.486328,4.430008 192.767738,3.53922917 193.330566,2.75634766 C193.893395,1.97346614 194.701655,1.36198137 195.755371,0.921875 C196.809087,0.48176863 197.991855,0.26171875 199.303711,0.26171875 C200.62403,0.26171875 201.800451,0.50081141 202.833008,0.97900391 C203.865565,1.4571964 204.667478,2.1321571 205.23877,3.00390625 C205.810061,3.8756554 206.095703,4.8658799 206.095703,5.9746094 L202.287109,5.9746094 C202.287109,5.128251 202.02051,4.4702172 201.487305,4.0004883 C200.954099,3.53075937 200.205083,3.29589844 199.240234,3.29589844 C198.30924,3.29589844 197.585615,3.49267381 197.069336,3.88623047 C196.553057,4.2797871 196.294922,4.7981739 196.294922,5.4414062 C196.294922,6.0423207 196.59749,6.5458964 197.202637,6.9521484 C197.807783,7.3584005 198.698562,7.739256 199.875,8.0947266 C202.041677,8.7464225 203.620112,9.5546827 204.610352,10.5195312 C205.600591,11.4843798 206.095703,12.6861907 206.095703,14.125 C206.095703,15.7246174 205.490566,16.9793249 204.280273,17.8891602 C203.069981,18.7989954 201.440765,19.2539062 199.392578,19.2539062 C197.970696,19.2539062 196.675787,18.9936549 195.507812,18.4731445 C194.339838,17.9526341 193.449059,17.2395879 192.835449,16.3339844 C192.221839,15.4283809 191.915039,14.3789122 191.915039,13.1855469 L195.736328,13.1855469 C195.736328,15.2252706 196.955066,16.2451172 199.392578,16.2451172 C200.298182,16.2451172 201.00488,16.061037 201.512695,15.6928711 C202.02051,15.3247052 202.274414,14.8105502 202.274414,14.1503906 Z" id="Shape"></path>
        </g>
    </g>
</svg>