<svg height="117" viewBox="0 0 600 117" width="600" xmlns="http://www.w3.org/2000/svg"><g fill="#fff"><path d="m43.9422009 9.79151154h-16.5246388v45.16008946h-11.1152279v-45.16008946h-16.3023342v-9.0469099h43.9422009zm26.3060392 25.31645576h-8.8551315v19.8436337h-11.1152279v-54.20699936h20.0444611c6.3727625 0 11.2881141 1.42713887 14.7462023 4.28145942 3.4580882 2.85432056 5.1871062 6.88753914 5.1871062 12.09977664 0 3.6982066-.7965833 6.7820675-2.389774 9.2516752-1.5931906 2.4696079-4.007641 4.4365775-7.2434234 5.9009681l11.6709892 22.1518987v.5212213h-11.9303445zm-8.8551315-9.0469101h8.9662838c2.7911713 0 4.9524439-.7135694 6.4838829-2.1407296 1.5314393-1.4271603 2.2971472-3.3941299 2.2971472-5.900968 0-2.5564784-.7224827-4.5668827-2.1674695-6.0312732-1.4449868-1.4643906-3.6618352-2.19657486-6.6506112-2.19657486h-8.9292332zm67.7658394 17.721519h-19.4887l-3.705076 11.1690248h-11.8191918l20.0815118-54.20699936h10.300111l20.192664 54.20699936h-11.819192zm-16.487588-9.0469099h13.486476l-6.780289-20.2903945zm78.658762 2.1593448c-.41991 5.8327421-2.562658 10.4244064-6.428306 13.7751304-3.865649 3.3507241-8.960077 5.026061-15.283439 5.026061-6.916176 0-12.356408-2.3392668-16.320859-7.0178703-3.964451-4.6786038-5.946647-11.1007287-5.946647-19.2665674v-3.3134775c0-5.2122374.91391-9.8039016 2.741756-13.7751302 1.827847-3.97122859 4.439899-7.01785981 7.836236-9.1399851 3.396336-2.12212528 7.342203-3.183172 11.837717-3.183172 6.224559 0 11.238712 1.67533693 15.042609 5.02606106s6.00222 8.05407744 6.595035 14.11020104h-11.115228c-.271707-3.4996452-1.241192-6.0374704-2.908484-7.6135517-1.667293-1.57608139-4.205245-2.36411025-7.613932-2.36411025-3.705094 0-6.477698 1.33406455-8.317895 4.00223375-1.840197 2.6681693-2.784982 6.806872-2.834383 12.4162324v4.0953089c0 5.8575623.883034 10.138979 2.649129 12.8443782 1.766095 2.7053995 4.55105 4.058079 8.354946 4.058079 3.433388 0 5.99604-.7880289 7.688033-2.3641101 1.691993-1.5760813 2.661478-4.0146274 2.908485-7.3157112zm19.118193 18.0565899h-11.115228v-54.20699936h11.115228zm54.168209 0h-11.115227l-21.637643-35.6664186v35.6664186h-11.115228v-54.20699936h11.115228l21.674694 35.74087866v-35.74087866h11.078176zm52.389775-6.8503352c-2.000751 2.4075572-4.82893 4.2752479-8.484623 5.6031274-3.655695 1.3278795-7.706536 1.9918093-12.15265 1.9918093-4.668419 0-8.762486-1.0238169-12.282326-3.0714817-3.51984-2.0476649-6.236868-5.0198365-8.151167-8.9166046-1.914301-3.8967681-2.896134-8.4760223-2.945536-13.7379003v-3.6857782c0-5.4107988.907735-10.0955373 2.72323-14.0543558 1.815498-3.95881851 4.433726-6.98683489 7.854762-9.08413998 3.421037-2.0973051 7.428653-3.14594192 12.022971-3.14594192 6.397464 0 11.399266 1.53262305 15.005557 4.59791511 3.606293 3.06529208 5.742864 7.52665229 6.409782 13.38421449h-10.818821c-.494014-3.1025224-1.587-5.3735347-3.278993-6.813105-1.691992-1.4395704-4.019994-2.15934478-6.984068-2.15934478-3.779196 0-6.656776 1.42713888-8.632828 4.28145938-1.97605 2.8543206-2.97641 7.0985075-3.001112 12.7326881v3.4623975c0 5.683821 1.074463 9.9776476 3.223418 12.8816084 2.148954 2.903961 5.298237 4.3559197 9.447943 4.3559197 4.174406 0 7.150787-.8935132 8.929233-2.6805661v-9.3447503h-10.114857v-8.2278481h21.230085zm47.832532-6.5897245 12.226749-40.76693966h12.374953l-18.784734 54.20699936h-11.596887l-18.710635-54.20699936h12.337904zm73.508707-12.4348474c0 5.3363385-.938611 10.0148719-2.81586 14.035741-1.877246 4.0208689-4.563399 7.1233446-8.058539 9.3075205-3.495141 2.1841757-7.502757 3.2762471-12.022971 3.2762471-4.470816 0-8.459906-1.0796615-11.967396-3.2390172-3.50749-2.1593554-6.224519-5.2432164-8.151167-9.2516752-1.92665-4.008459-2.90231-8.6187379-2.92701-13.8309754v-2.6805661c0-5.3363383.957134-10.0334867 2.871435-14.0915859 1.914298-4.05809918 4.618977-7.1729849 8.114115-9.34475052 3.49514-2.17176565 7.490407-3.25763218 11.985922-3.25763218 4.495514 0 8.490781 1.08586653 11.985919 3.25763218 3.49514 2.17176562 6.199819 5.28665134 8.114117 9.34475052 1.914298 4.0580992 2.871435 8.7428377 2.871435 14.054356zm-11.263431-2.4571853c0-5.683821-1.012712-10.0024673-3.038163-12.9560685-2.025452-2.9536013-4.915382-4.4303798-8.669877-4.4303798-3.729797 0-6.607377 1.4581636-8.632829 4.3745346-2.025451 2.916371-3.050512 7.1915827-3.075212 12.8257633v2.6433357c0 5.5349 1.012709 9.8287264 3.038163 12.8816084 2.025452 3.052882 4.940081 4.5793 8.743979 4.5793 3.729793 0 6.595024-1.4705734 8.595776-4.4117646 2.000752-2.9411911 3.013461-7.2288126 3.038163-12.8629934zm31.159687 28.3320924h-11.115228v-54.20699936h11.115228zm52.649131-18.0565899c-.419913 5.8327421-2.56266 10.4244064-6.428307 13.7751304-3.865648 3.3507241-8.960077 5.026061-15.28344 5.026061-6.916177 0-12.356407-2.3392668-16.320859-7.0178703-3.964452-4.6786038-5.946647-11.1007287-5.946647-19.2665674v-3.3134775c0-5.2122374.913911-9.8039016 2.741756-13.7751302 1.827847-3.97122859 4.439899-7.01785981 7.836236-9.1399851 3.396337-2.12212528 7.342204-3.183172 11.837719-3.183172 6.224557 0 11.238711 1.67533693 15.042608 5.02606106 3.803895 3.35072413 6.00222 8.05407744 6.595035 14.11020104h-11.115229c-.271707-3.4996452-1.241191-6.0374704-2.908484-7.6135517-1.667293-1.57608139-4.205243-2.36411025-7.61393-2.36411025-3.705096 0-6.4777 1.33406455-8.317897 4.00223375-1.840198 2.6681693-2.784982 6.806872-2.834383 12.4162324v4.0953089c0 5.8575623.883035 10.138979 2.649128 12.8443782 1.766097 2.7053995 4.55105 4.058079 8.354947 4.058079 3.433389 0 5.996042-.7880289 7.688034-2.3641101 1.691992-1.5760813 2.661478-4.0146274 2.908484-7.3157112zm39.755463-5.4355919h-21.341235v14.5197319h25.046311v8.9724499h-36.16154v-54.20699936h36.087439v9.0469099h-24.97221v12.91883846h21.341235zm38.199334 9.2702904c0-2.1097152-.741006-3.7292076-2.223045-4.8585258-1.482039-1.129318-4.149665-2.3206686-8.002964-3.5740879-3.853299-1.2534189-6.903782-2.4882043-9.151539-3.7043931-6.125756-3.3259038-9.188588-7.8058789-9.188588-13.4400595 0-2.928781.821284-5.54106568 2.463877-7.83693221 1.642591-2.29586653 4.001466-4.08909755 7.076693-5.37974683 3.075231-1.29064929 6.527092-1.93596426 10.355689-1.93596426 3.853299 0 7.286634.70115953 10.30011 2.10349963 3.013477 1.40234009 5.353828 3.38171966 7.021119 5.93819807 1.667292 2.5564784 2.500926 5.4603957 2.500926 8.7118392h-11.115226c0-2.4820179-.778058-4.4117579-2.334198-5.7892778-1.55614-1.37751988-3.742113-2.06626953-6.557985-2.06626953-2.71707 0-4.828941.57706051-6.33568 1.73119883-1.506738 1.1541383-2.260097 2.6743514-2.260097 4.560685 0 1.7622327.883036 3.2390112 2.649129 4.4303798 1.766096 1.1913685 4.365798 2.3082598 7.799184 3.3507073 6.323363 1.9111538 10.929962 4.2814453 13.819936 7.1109456 2.889973 2.8295005 4.334937 6.3539129 4.334937 10.5733433 0 4.6910139-1.766068 8.3705501-5.298258 11.0387192-3.532189 2.6681694-8.286991 4.0022339-14.264542 4.0022339-4.149706 0-7.928845-.7632091-11.337532-2.2896501s-6.008391-3.6175096-7.799187-6.2732686c-1.790795-2.6557592-2.686178-5.7334152-2.686178-9.2330605h11.152278c0 5.981663 3.556838 8.9724499 10.670619 8.9724499 2.642968 0 4.705438-.5398309 6.187477-1.6195086 1.482039-1.0796778 2.223045-2.5874811 2.223045-4.523455z"/><g transform="translate(161 74)"><path d="m15.7096578 11.5798319c-.9705729-.605045-2.0314149-1.0700264-3.18256-1.394958-1.1511451-.32493155-2.2345592-.48739491-3.25027403-.48739491-1.62514547 0-2.92862809.31932451-3.91048593.95798321-.98185784.6386586-1.47278042 1.5069973-1.47278042 2.605042 0 .9635903.27085406 1.7478962.81256851 2.3529412.54171445.6050449 1.20756356 1.0812307 1.99756424 1.4285714.79000069.3473408 1.87341478.7338914 3.25027402 1.1596639 1.60257341.4705905 2.89477111.9355718 3.87662891 1.394958.9818578.4593861 1.8169899 1.126046 2.5054196 2 .6884296.8739539 1.0326391 2.0280039 1.0326391 3.4621848 0 1.2549082-.3554945 2.3641408-1.0664962 3.3277311-.7110016.9635904-1.7097732 1.7086809-2.9963463 2.2352941-1.2865732.5266133-2.7649823.789916-4.43526978.789916-1.64771753 0-3.2559091-.3249267-4.8246255-.9747899s-2.91734101-1.5125996-4.04591402-2.5882353l1.08342467-1.9159664c1.06085897 1.0308174 2.290984 1.8375322 3.6904153 2.4201681s2.77626938.8739496 4.13055657.8739496c1.80571766 0 3.23898266-.3641421 4.29984166-1.092437 1.060859-.728295 1.59128-1.7086773 1.59128-2.9411765 0-.9859994-.270854-1.7927139-.8125685-2.4201681s-1.2075636-1.109242-1.9975642-1.4453781c-.7900007-.3361361-1.8959869-.7282891-3.31798811-1.1764706-1.60257342-.4929996-2.88912752-.9579811-3.8597004-1.394958-.97057287-.4369769-1.79441788-1.0868304-2.47156254-1.9495798-.67714465-.8627494-1.01571063-1.9887887-1.01571063-3.3781513 0-1.187681.33856598-2.2296874 1.01571063-3.1260504.67714466-.89636302 1.62513067-1.58543176 2.84398977-2.06722688 1.21885911-.48179513 2.62955421-.72268908 4.23212764-.72268908 1.28657314 0 2.57877084.19047429 3.87662894.57142857 1.2978581.38095429 2.4433427.88515093 3.4364876 1.51260505zm16.5560833 1.9831933c1.6477175 0 3.1204831.3753464 4.4183412 1.1260504s2.3079168 1.8039147 3.0302034 3.1596639c.7222867 1.3557492 1.0834247 2.89635 1.0834247 4.6218487 0 1.7030897-.361138 3.2268841-1.0834247 4.5714286-.7222866 1.3445445-1.7267017 2.3921532-3.0132749 3.1428571-1.2865731.750704-2.7536952 1.1260505-4.4014127 1.1260505-1.6251455 0-3.0471255-.364142-4.2659847-1.092437-1.2188591-.728295-2.1668451-1.7422903-2.8439897-3.0420168v10.5882353h-2.2684204v-24.1344538h2.2684204v4.0672269c.6545726-1.2997265 1.5969172-2.3137219 2.8270612-3.0420168 1.2301441-.728295 2.6464828-1.092437 4.2490562-1.092437zm-.4062843 15.7983193c1.2640011 0 2.4038443-.2969157 3.4195592-.8907563 1.0157148-.5938405 1.8057049-1.4173617 2.3699914-2.4705882s.8464256-2.2520941.8464256-3.5966387c0-1.3221355-.2821391-2.5097987-.8464256-3.5630252-.5642865-1.0532264-1.3542766-1.8767477-2.3699914-2.4705882-1.0157149-.5938405-2.1555581-.8907563-3.4195592-.8907563-1.2865731 0-2.4320577.2969158-3.4364876.8907563s-1.79442 1.4173618-2.3699915 2.4705882c-.5755715 1.0532265-.863354 2.2408897-.863354 3.5630252 0 1.3445446.282139 2.5434122.8464255 3.5966387s1.3542766 1.8767477 2.3699915 2.4705882c1.0157148.5938406 2.166843.8907563 3.4534161.8907563zm20.855925-15.7983193c1.7154316 0 3.2502677.3753464 4.6045549 1.1260504s2.4151313 1.7983126 3.18256 3.1428572c.7674286 1.3445445 1.1511387 2.8683388 1.1511387 4.5714285 0 1.7254988-.3837101 3.2660996-1.1511387 4.6218488-.7674287 1.3557491-1.8282728 2.4089599-3.18256 3.1596638-1.3542872.750704-2.8891233 1.1260505-4.6045549 1.1260505s-3.2502677-.3753465-4.6045549-1.1260505c-1.3542872-.7507039-2.4151313-1.8039147-3.1825599-3.1596638-.7674287-1.3557492-1.1511388-2.89635-1.1511388-4.6218488 0-1.7030897.3837101-3.226884 1.1511388-4.5714285.7674286-1.3445446 1.8282727-2.3921532 3.1825599-3.1428572s2.8891233-1.1260504 4.6045549-1.1260504zm0 1.9495798c-1.2865731 0-2.4377013.2913137-3.4534161.8739496-1.0157149.5826359-1.805705 1.4005551-2.3699915 2.4537815-.5642865 1.0532265-.8464255 2.2520942-.8464255 3.5966387 0 1.3669536.282139 2.5770256.8464255 3.6302521s1.3542766 1.8711456 2.3699915 2.4537815c1.0157148.5826359 2.166843.8739496 3.4534161.8739496 1.2865732 0 2.4377013-.2913137 3.4534162-.8739496 1.0157148-.5826359 1.8057049-1.400555 2.3699914-2.4537815s.8464256-2.2632985.8464256-3.6302521c0-1.3445445-.2821391-2.5434122-.8464256-3.5966387-.5642865-1.0532264-1.3542766-1.8711456-2.3699914-2.4537815-1.0157149-.5826359-2.166843-.8739496-3.4534162-.8739496zm23.0227743-1.9495798c2.121718 0 3.7863365.6106382 4.9939106 1.8319328 1.2075742 1.2212945 1.8113507 2.8963479 1.8113507 5.0252101v10.8235294h-2.3022775v-10.2857143c0-1.6582716-.4627069-2.9579786-1.3881378-3.8991597s-2.2119829-1.4117647-3.8597004-1.4117647c-1.8282876.0224091-3.2897683.5826275-4.3844843 1.6806723-1.094716 1.0980447-1.7210645 2.5770214-1.8790646 4.4369748v9.4789916h-2.2684204v-17.6134454h2.2684204v4.1008403c.6094285-1.3669535 1.5066311-2.3977556 2.6916331-3.0924369 1.1850021-.6946814 2.6239107-1.0532212 4.3167702-1.0756303zm22.0409207 3.1932773c-.6771446-.4257725-1.4332756-.7563012-2.2684204-.9915966s-1.6589898-.3529412-2.4715625-.3529412c-1.128573 0-2.0370606.2184853-2.7254902.6554622s-1.0326391 1.0924326-1.0326391 1.9663865c0 .605045.1862115 1.0980374.5586408 1.4789916.3724294.3809542.8351363.6890744 1.3881379.9243698.5530015.2352954 1.326061.4985979 2.3192059.789916 1.2188591.3585451 2.2119892.7114827 2.9794179 1.0588235.7674286.3473407 1.4219927.8515374 1.9637072 1.512605.5417144.6610677.8125685 1.5294063.8125685 2.605042 0 1.5910444-.60942 2.8067185-1.8282791 3.6470589-1.2188591.8403403-2.7424103 1.2605042-4.5706979 1.2605042-1.2865731 0-2.5279852-.212883-3.7242723-.6386555s-2.2007021-1.0308084-3.0132749-1.815126l.9141396-1.6134454c.7674286.6946813 1.6759183 1.2436954 2.7254902 1.6470588s2.1160575.605042 3.1994885.605042c1.196287 0 2.1724886-.2464962 2.9286323-.7394958s1.1342102-1.2100794 1.1342102-2.1512605c0-.6498632-.191855-1.1820708-.5755694-1.5966386-.3837143-.4145679-.8633519-.7394946-1.4389233-.97479-.5755715-.2352953-1.3712052-.5098023-2.38692-.8235294-1.1962871-.3585451-2.1668451-.7058806-2.9117038-1.0420168-.7448587-.3361361-1.3768487-.8235262-1.8959932-1.4621848-.5191445-.6386587-.7787115-1.4733843-.7787115-2.5042017 0-1.5462263.5812065-2.7114807 1.7436366-3.4957983 1.16243-.7843177 2.6126257-1.1764706 4.3506272-1.1764706 1.0157148 0 1.99756.1344524 2.9455608.4033613s1.7944179.6386531 2.5392766 1.1092437zm13.1365242-3.1932773c1.715432 0 3.250268.3753464 4.604555 1.1260504s2.415131 1.7983126 3.18256 3.1428572c.767429 1.3445445 1.151139 2.8683388 1.151139 4.5714285 0 1.7254988-.38371 3.2660996-1.151139 4.6218488-.767429 1.3557491-1.828273 2.4089599-3.18256 3.1596638-1.354287.750704-2.889123 1.1260505-4.604555 1.1260505s-3.250268-.3753465-4.604555-1.1260505c-1.354287-.7507039-2.415131-1.8039147-3.18256-3.1596638-.767428-1.3557492-1.151139-2.89635-1.151139-4.6218488 0-1.7030897.383711-3.226884 1.151139-4.5714285.767429-1.3445446 1.828273-2.3921532 3.18256-3.1428572s2.889123-1.1260504 4.604555-1.1260504zm0 1.9495798c-1.286573 0-2.437701.2913137-3.453416.8739496s-1.805705 1.4005551-2.369992 2.4537815c-.564286 1.0532265-.846425 2.2520942-.846425 3.5966387 0 1.3669536.282139 2.5770256.846425 3.6302521.564287 1.0532265 1.354277 1.8711456 2.369992 2.4537815s2.166843.8739496 3.453416.8739496 2.437701-.2913137 3.453416-.8739496 1.805705-1.400555 2.369992-2.4537815c.564286-1.0532265.846425-2.2632985.846425-3.6302521 0-1.3445445-.282139-2.5434122-.846425-3.5966387-.564287-1.0532264-1.354277-1.8711456-2.369992-2.4537815s-2.166843-.8739496-3.453416-.8739496zm16.014371 2.2184874c.586859-1.3445445 1.427632-2.3697443 2.522348-3.0756302s2.409484-1.0700279 3.944343-1.092437v2.1176471c-1.873432-.0224091-3.380054.5210029-4.519912 1.6302521-1.139858 1.1092491-1.788779 2.6162369-1.946779 4.5210084v9.4117647h-2.26842v-17.6134454h2.26842zm17.030082-4.1680672c2.753718 0 4.852832.8683387 6.297406 2.605042 1.444573 1.7367034 2.110422 4.0728145 1.997564 7.0084034h-14.795518c.158 1.8823624.857704 3.4005544 2.099135 4.5546218 1.241431 1.1540675 2.776267 1.7310925 4.604555 1.7310925 1.128573 0 2.17813-.2016786 3.148703-.605042.970573-.4033635 1.805705-.9747862 2.505419-1.7142858l1.286567 1.277311c-.857715.918772-1.890343 1.6302495-3.097917 2.1344537-1.207575.5042043-2.533627.7563026-3.9782.7563026-1.715432 0-3.238983-.3753465-4.570698-1.1260505-1.331715-.7507039-2.375631-1.7983126-3.131775-3.1428571-.756143-1.3445445-1.13421-2.8795433-1.13421-4.605042 0-1.7030897.378067-3.2324861 1.13421-4.5882353.756144-1.3557492 1.80006-2.4089599 3.131775-3.1596639s2.832696-1.1260504 4.502984-1.1260504zm6.263548 7.8655462c-.112858-1.8375441-.727919-3.2997145-1.845207-4.3865546s-2.578767-1.6302521-4.384484-1.6302521c-1.783146 0-3.27284.5490141-4.469127 1.6470588-1.196287 1.0980448-1.884706 2.5546128-2.065278 4.3697479zm22.921204-15.12605039v24.94117649h-2.268421v-4.0336135c-.677144 1.3221355-1.62513 2.3473353-2.843989 3.0756303-1.21886.7282949-2.64084 1.092437-4.265985 1.092437-1.670288 0-3.159982-.3809486-4.469127-1.1428572s-2.324845-1.8263237-3.047132-3.1932773c-.722286-1.3669536-1.083424-2.9131567-1.083424-4.6386555 0-1.7254987.366781-3.2604974 1.100353-4.605042.733571-1.3445445 1.749274-2.3977552 3.047132-3.1596638s2.770623-1.1428572 4.418341-1.1428572c1.625145 0 3.052769.3697442 4.282913 1.1092437 1.230144.7394996 2.183774 1.7703015 2.860918 3.092437v-11.39495799zm-8.972111 23.12605039c1.286573 0 2.437701-.2969157 3.453416-.8907563 1.015715-.5938405 1.811349-1.4173617 2.38692-2.4705882.575572-1.0532265.863354-2.2520941.863354-3.5966387 0-1.3445445-.287782-2.5490143-.863354-3.6134453-.575571-1.0644311-1.371205-1.8991568-2.38692-2.5042017-1.015715-.605045-2.166843-.907563-3.453416-.907563s-2.437701.302518-3.453416.907563c-1.015715.6050449-1.81699 1.4397706-2.403848 2.5042017-.586859 1.064431-.880283 2.2689008-.880283 3.6134453 0 1.3445446.287783 2.5434122.863354 3.5966387s1.376847 1.8767477 2.403849 2.4705882c1.027001.5938406 2.183771.8907563 3.470344.8907563zm34.601876-15.8655462c1.647717 0 3.120483.3753464 4.418341 1.1260504s2.307917 1.8039147 3.030203 3.1596639c.722287 1.3557492 1.083425 2.89635 1.083425 4.6218487 0 1.7030897-.361138 3.2268841-1.083425 4.5714286-.722286 1.3445445-1.726701 2.3921532-3.013275 3.1428571-1.286573.750704-2.753695 1.1260505-4.401412 1.1260505-1.625146 0-3.047126-.364142-4.265985-1.092437s-2.166845-1.7422903-2.84399-3.0420168v4.0672269h-2.26842v-24.94117649h2.26842v11.39495799c.654573-1.2997265 1.596917-2.3137219 2.827062-3.0420168 1.230144-.728295 2.646482-1.092437 4.249056-1.092437zm-.406285 15.7983193c1.264002 0 2.403845-.2969157 3.41956-.8907563 1.015714-.5938405 1.805705-1.4173617 2.369991-2.4705882.564287-1.0532265.846426-2.2520941.846426-3.5966387 0-1.3221355-.282139-2.5097987-.846426-3.5630252-.564286-1.0532264-1.354277-1.8767477-2.369991-2.4705882-1.015715-.5938405-2.155558-.8907563-3.41956-.8907563-1.286573 0-2.432057.2969158-3.436487.8907563s-1.79442 1.4173618-2.369992 2.4705882c-.575571 1.0532265-.863354 2.2408897-.863354 3.5630252 0 1.3445446.282139 2.5434122.846426 3.5966387.564286 1.0532265 1.354276 1.8767477 2.369991 2.4705882 1.015715.5938406 2.166843.8907563 3.453416.8907563zm18.452077 4.4033614c-.541715 1.3445445-1.258349 2.3641422-2.149921 3.0588235s-1.912915 1.0420168-3.06406 1.0420168c-1.37686 0-2.5957-.4033573-3.656559-1.210084l1.015711-1.7478992c.790001.5378179 1.636418.8067227 2.539277.8067227.722286 0 1.376848-.2352918 1.963707-.7058823.586858-.4705906 1.072137-1.1540572 1.455852-2.0504202l.744854-1.8151261-7.346973-17.512605h2.403848l6.094264 15.1260504 5.857265-15.1260504h2.336134z" opacity=".8"/><path d="m260.75886 34.5210084-1.862136-4.5714286h-10.969675l-1.862136 4.5714286h-5.518695l10.292535-23.5294118h5.518694l10.12325 23.5294118zm-11.071246-8.8403361h7.482402l-3.724272-9.1428572zm36.328584-16.10084037v24.94117647h-5.180124v-2.6554622c-.654573.9411811-1.467133 1.6526586-2.437706 2.1344538s-2.076557.7226891-3.317988.7226891c-1.715432 0-3.222054-.3865509-4.519912-1.1596639s-2.302274-1.8655391-3.013275-3.2773109c-.711002-1.4117719-1.066496-3.0364055-1.066496-4.8739496 0-1.8151351.349853-3.4173601 1.049567-4.8067227.699715-1.3893626 1.692845-2.4649821 2.979418-3.2268907s2.764982-1.1428572 4.43527-1.1428572c2.573146 0 4.536834.9523714 5.891122 2.8571429v-9.51260507zm-9.716965 20.97478987c1.331715 0 2.420773-.4649813 3.267202-1.3949579.84643-.9299767 1.269639-2.1344465 1.269639-3.6134454 0-1.478999-.423209-2.6834687-1.269639-3.6134454-.846429-.9299767-1.935487-1.394958-3.267202-1.394958-1.354287 0-2.45463.4649813-3.30106 1.394958s-1.280923 2.1344464-1.303495 3.6134454c.022572 1.4789989.457065 2.6834687 1.303495 3.6134454.84643.9299766 1.946773 1.3949579 3.30106 1.3949579zm14.930946-14.117647h5.213981v18.0840336h-5.213981zm2.573134-8.03361346c.835144 0 1.51792.26890488 2.048349.80672269.53043.53781782.79564 1.23248877.79564 2.08403357 0 .8515449-.26521 1.5462158-.79564 2.0840337-.530429.5378178-1.213205.8067226-2.048349.8067226-.812573 0-1.484064-.274507-2.014493-.8235294-.53043-.5490223-.79564-1.2380911-.79564-2.0672269 0-.8515448.26521-1.54621575.79564-2.08403357.530429-.53781781 1.20192-.80672269 2.014493-.80672269zm25.629765 1.17647059v24.94117647h-5.180125v-2.6554622c-.654572.9411811-1.467132 1.6526586-2.437705 2.1344538s-2.076557.7226891-3.317988.7226891c-1.715432 0-3.222054-.3865509-4.519913-1.1596639-1.297858-.773113-2.302273-1.8655391-3.013274-3.2773109-.711002-1.4117719-1.066497-3.0364055-1.066497-4.8739496 0-1.8151351.349853-3.4173601 1.049568-4.8067227s1.692845-2.4649821 2.979418-3.2268907 2.764982-1.1428572 4.43527-1.1428572c2.573146 0 4.536834.9523714 5.891121 2.8571429v-9.51260507zm-9.716965 20.97478987c1.331715 0 2.420772-.4649813 3.267202-1.3949579.84643-.9299767 1.269638-2.1344465 1.269638-3.6134454 0-1.478999-.423208-2.6834687-1.269638-3.6134454s-1.935487-1.394958-3.267202-1.394958c-1.354288 0-2.45463.4649813-3.30106 1.394958s-1.280923 2.1344464-1.303495 3.6134454c.022572 1.4789989.457065 2.6834687 1.303495 3.6134454.84643.9299766 1.946772 1.3949579 3.30106 1.3949579zm25.494336 3.9663866v-2.1176471c-.609428.7619087-1.399418 1.3445358-2.369991 1.7478992s-2.087844.605042-3.351845.605042c-1.918574 0-3.442125-.5210031-4.570698-1.5630252-1.128573-1.042022-1.692851-2.4033529-1.692851-4.0840336 0-1.7030897.603776-3.0308076 1.811351-3.9831933 1.207574-.9523857 2.917334-1.4397758 5.129338-1.4621849h5.010839v-.3361344c0-.9635903-.321637-1.7086809-.964925-2.2352941-.643287-.5266133-1.58563-.789916-2.827061-.789916-1.69286 0-3.49855.5266055-5.417123 1.5798319l-1.625137-3.5630252c1.444573-.7170903 2.798841-1.2436958 4.062842-1.5798319s2.652126-.5042017 4.164414-.5042017c2.437718 0 4.328049.5714229 5.671051 1.7142857s2.025778 2.7338834 2.04835 4.7731093l.033857 11.7983193zm-4.265984-3.4621849c1.083431 0 2.020132-.2577004 2.810132-.7731092.790001-.5154088 1.263995-1.1652622 1.421995-1.9495798v-1.6134454h-4.096699c-1.015715 0-1.766207.1624634-2.251492.4873949s-.727926.8459349-.727926 1.5630252c0 .6946813.253926 1.2492977.761783 1.6638656.507857.4145678 1.20192.6218487 2.082207.6218487zm25.358909-9.3109243c-.993145-.5602269-1.974988-.9915952-2.945561-1.2941177s-1.839562-.4537815-2.606991-.4537815c-.632 0-1.139852.1120437-1.523566.3361345-.383714.2240907-.575569.5602218-.575569 1.0084033 0 .4929996.259567.8739483.778711 1.1428572.519145.2689088 1.365562.5714268 2.539277.907563 1.286573.3809542 2.347415.7563006 3.18256 1.1260504s1.557421.9187639 2.166849 1.6470588c.609429.728295.91414 1.6862685.91414 2.8739496 0 1.7927261-.694063 3.1876702-2.082207 4.184874-1.388144.9972037-3.165621 1.4957983-5.332481 1.4957983-1.489717 0-2.922982-.2184853-4.299842-.6554622-1.376859-.4369769-2.573129-1.0588195-3.588844-1.8655462l1.692851-3.4957983c.925431.7170903 1.95806 1.2717067 3.097918 1.6638655s2.21763.5882353 3.233345.5882353c.699715 0 1.258351-.1176458 1.675923-.3529412.417571-.2352954.626355-.588233.626355-1.0588235 0-.5154088-.265211-.918766-.79564-1.210084-.53043-.2913181-1.38249-.6050404-2.556205-.9411765-1.241432-.3585452-2.27406-.7170851-3.097918-1.0756303-.823858-.3585451-1.529205-.9019571-2.116064-1.6302521-.586858-.7282949-.880282-1.6750643-.880282-2.8403361 0-1.7927261.677134-3.1820679 2.031421-4.1680672 1.354287-.9859994 3.069693-1.4789916 5.146267-1.4789916 1.241431 0 2.482841.1736677 3.724273.5210084 1.241431.3473407 2.369987.8459351 3.385702 1.4957983z"/><g transform="translate(375)"><path d="m41.5519013 27.9121286-13.0142006-22.45488919 9.3494225-5.33154373 16.1830894 27.78643292z"/><path d="m6.88767978 24.7660443 9.34942252-5.3675592 4.9468473 8.5136435h-12.48202221z"/><path d="m25.2357712 42.2376244h2.6608923v-10.6870797h-2.6608923z"/><path d="m58.5816442 42.4897996c-2.9753692 0-4.7654344-1.5250107-4.8621897-3.6744408h2.8060439c0 .6724488.4233236 1.6570988 2.2375731 1.6931275 1.2094974 0 1.7779585-.7084783 1.7779585-1.236825-.0725753-.8405569-1.1369362-.91261-2.2738585-1.0927268-1.1369222-.1801219-2.1045233-.3842545-2.8060342-.7444931-.8950389-.4563032-1.4997856-1.4409523-1.4997856-2.5696948 0-1.9092781 1.6691076-3.4222697 4.4509572-3.4222697 2.6971821 0 4.4025795 1.4049271 4.584007 3.494309h-2.7092885c-.0241845-.5643712-.1330355-1.4529567-1.7295811-1.4529567-1.0764531 0-1.7900516.2161324-1.8505348.9606387 0 1.0927136 2.237582 1.0206743 3.9792559 1.476968 1.6691067.4202876 2.7334677 1.4529706 2.7334677 2.8939229 0 2.6537664-2.1650064 3.6744408-4.8379909 3.6744408"/><path d="m61.6779523 28.3324076c.6410364 0 1.2216039.5403607 1.2216039 1.1887901 0 .6364244-.5805675 1.176772-1.2216039 1.176772-.6410224 0-1.1732122-.5403476-1.1732122-1.176772 0-.6484294.5321898-1.1887901 1.1732122-1.1887901zm0-.1801221c-.7498886 0-1.3546395.6124139-1.3546395 1.3689122 0 .7444933.6047509 1.3568941 1.3546395 1.3568941.7619893 0 1.403017-.6124008 1.403017-1.3568941 0-.7564983-.6410277-1.3689122-1.403017-1.3689122zm.3265647 1.4169418c.1330452-.0480296.2298042-.1921227.2298042-.3842491 0-.2881996-.2298042-.4202788-.5079912-.4202788h-.5200792v1.5009916h.2418974v-.6124053h.3265639c.1814228 0 .2298049.1440933.2298049.4322832 0 .0840584 0 .132088.0483777.1801221h.2298041c-.0483776-.0960637-.0483776-.2281561-.0483776-.420278 0-.2401569-.1330444-.2761857-.2298042-.2761857zm-.5563688-.5763903h.3265639c.1330452 0 .2298049.0960777.2298049.2401708 0 .1440968-.1935195.1921264-.3265647.1921264h-.2298041z"/><path d="m17.8457346 15.2317265 9.3494226-5.35555331 10.48635 18.03595541h-9.7848437v2.6417479h-2.6608923v-2.6537532z"/><path d="m18.0876362 42.4897996c-3.0963178 0-5.6120744-2.509674-5.6120744-5.5476763 0-3.0740449 2.5157566-5.4996464 5.6120744-5.4996464 1.173213 0 2.2375687.312196 3.1688844.9486204v-4.4789687h2.6608967v14.3254958h-2.6608967v-.7084645c-.9313157.6004-1.9956714.9606397-3.1688844.9606397zm-3.0600323-5.5476763c0 1.6570893 1.4272076 3.0380023 3.1325989 3.0380023 1.6691075 0 3.0963178-1.380913 3.0963178-3.0380023 0-1.6571029-1.4272103-3.0740449-3.0963178-3.0740449-1.7053913 0-3.1325989 1.416942-3.1325989 3.0740449z"/><path d="m37.754078 27.9121286h2.6246113v14.3254958h-2.6246113v-.7084645c-.8950302.6004-1.9956714.9606397-3.2051699.9606397-3.0600322 0-5.5757871-2.509674-5.5757871-5.5476763 0-3.0740449 2.5157549-5.4996464 5.5757871-5.4996464 1.2094985 0 2.2738543.312196 3.2051699.9486204zm-6.1926313 9.0299947c0 1.6570893 1.4272059 3.0380023 3.0600325 3.0380023 1.7053929 0 3.1325988-1.380913 3.1325988-3.0380023 0-1.6571029-1.4272059-3.0740449-3.1325988-3.0740449-1.6328266 0-3.0600325 1.416942-3.0600325 3.0740449z"/><path d="m46.8495067 42.4897996c-3.0479358 0-5.5757871-2.509674-5.5757871-5.5476763 0-3.0740449 2.5278513-5.4996464 5.5757871-5.4996464 1.1732173 0 2.2738496.312196 3.1688887.9486204v-.8525576h2.6608923v10.6990847h-2.6608923v-.7084645c-.8950391.6004-1.9593858.9606397-3.1688887.9606397zm-2.9874615-5.5476763c0 1.6570893 1.427206 3.0380023 3.0963135 3.0380023 1.669112 0 3.0600367-1.380913 3.0600367-3.0380023 0-1.6571029-1.3909247-3.0740449-3.0600367-3.0740449-1.6691075 0-3.0963135 1.416942-3.0963135 3.0740449z"/><path d="m2.69072045 36.9421233c0 1.6570893 1.42720802 3.0380023 3.09631642 3.0380023 1.70539123 0 3.13259977-1.380913 3.13259977-3.0380023 0-1.6571029-1.42720854-3.0740449-3.13259977-3.0740449-1.6691084 0-3.09631642 1.416942-3.09631642 3.0740449zm3.0237455 5.5476763c-3.06003096 0-5.58788188-2.509674-5.58788188-5.5476763 0-3.0740449 2.52785092-5.4996464 5.58788188-5.4996464 1.17321383 0 2.2738576.312196 3.20517069.9486204v-.8525576h2.62461126v10.6990847h-2.62461126v-.7084645c-.89502761.6004-1.99567229.9606397-3.20517069.9606397z"/></g></g></g></svg>