<?xml version="1.0" encoding="UTF-8"?>
<svg width="42px" height="60px" viewBox="0 0 42 60" version="1.1" xmlns="http://www.w3.org/2000/svg" xmlns:xlink="http://www.w3.org/1999/xlink">
    <!-- Generator: Sketch 52.3 (67297) - http://www.bohemiancoding.com/sketch -->
    <title>icon-volunteer</title>
    <desc>Created with Sketch.</desc>
    <g id="Design" stroke="none" stroke-width="1" fill="none" fill-rule="evenodd">
        <g id="Tracing-Voices---Aukan" transform="translate(-1103.000000, -3557.000000)" fill="#FFFFFF">
            <g id="Group-15" transform="translate(960.000000, 3557.000000)">
                <g id="icon-volunteer" transform="translate(143.000000, 0.000000)">
                    <path d="M0.00470406256,38.0557576 C0.00470406256,38.6337374 0.23122225,41.0567677 1.88629608,43.9325253 C3.28748162,46.3672727 5.9468746,49.2147475 10.841424,49.8440404 L10.841424,57.9739394 C10.841424,59.0927273 11.7585265,60 12.8898919,60 C14.0210531,60 14.9381556,59.0927273 14.9381556,57.9739394 L14.9381556,47.9448485 C14.9381556,46.8260606 14.0210531,45.9187879 12.8898919,45.9187879 C9.52234879,45.9187879 7.03943166,44.6127273 5.51058708,42.0367677 C4.38289825,40.1373737 4.09673776,38.5327273 4.09673776,37.8258586 C4.09673776,33.5494949 4.09673776,21.2008081 4.09673776,21.2008081 C4.09673776,20.8408081 4.09673776,19.8838384 5.77918169,19.8838384 C7.46121711,19.8838384 7.46121711,20.8406061 7.46121711,21.2008081 L7.46121711,28.180202 C7.46121711,28.7329293 7.68936933,29.2618182 8.09338464,29.6440404 C8.49719569,30.0260606 9.04092104,30.2309091 9.59955697,30.2042424 C9.60445908,30.2020202 10.7968966,30.2086869 12.3047029,31.0509091 C14.6195186,32.3442424 16.4874256,34.939596 17.7062119,38.5561616 C18.0640657,39.6177778 19.224231,40.1919192 20.2973839,39.8377778 C21.3707411,39.4838384 21.9508237,38.3363636 21.5929699,37.2749495 C18.9425641,29.409899 14.2827031,27.0991919 11.5583572,26.4262626 L11.5583572,7.68424242 C11.5583572,7.24585859 11.5583572,6.51191919 13.2405968,6.51191919 C14.9226323,6.51191919 14.9226323,7.24585859 14.9226323,7.68424242 L14.9226323,18.7408081 C14.9226323,19.859798 15.839939,20.7668687 16.9711002,20.7668687 C18.1022613,20.7668687 19.0193638,19.859798 19.0193638,18.7408081 L19.0193638,5.22424242 C19.0193638,4.78585859 19.0193638,4.05191919 20.7016035,4.05191919 C22.3836389,4.05191919 22.3836389,4.78585859 22.3836389,5.22424242 L22.3836389,18.7408081 C22.3836389,19.859798 23.3009456,20.7668687 24.4321068,20.7668687 C25.563268,20.7668687 26.4805747,19.859798 26.4805747,18.7408081 L26.4805747,7.68424242 C26.4805747,7.24585859 26.4805747,6.51191919 28.1626101,6.51191919 C29.8448498,6.51191919 29.8448498,7.24585859 29.8448498,7.68424242 L29.8448498,22.0838384 C29.8448498,23.2026263 30.7621565,24.109899 31.8933177,24.109899 C33.0246831,24.109899 33.9417856,23.2026263 33.9417856,22.0838384 L33.9417856,14.5149495 C33.9417856,14.1549495 33.9417856,13.1979798 35.6240253,13.1979798 C37.3062649,13.1979798 37.307899,14.1547475 37.307899,14.5149495 L37.307899,38.0305051 C37.3101458,38.0662626 37.4543494,41.6844444 35.2818991,43.9579798 C34.0388065,45.2591919 32.1905079,45.9187879 29.7886798,45.9187879 C28.6573144,45.9187879 27.7402119,46.8260606 27.7402119,47.9448485 L27.7402119,57.9739394 C27.7402119,59.0927273 28.6573144,60 29.7886798,60 C30.919841,60 31.8369435,59.0927273 31.8369435,57.9739394 L31.8369435,49.8420202 C34.4652898,49.4961616 36.6195615,48.4571717 38.2593162,46.7410101 C41.4916429,43.3581818 41.4285283,38.5418182 41.4029965,37.8725253 L41.4029965,14.5149495 C41.4029965,11.3539394 39.0262917,9.14585859 35.623821,9.14585859 C35.0290321,9.14585859 34.466311,9.21494949 33.9415813,9.34323232 L33.9415813,7.68444444 C33.9415813,4.55939394 31.619004,2.46020202 28.1622016,2.46020202 C27.3480434,2.46020202 26.5976125,2.5779798 25.9247983,2.7969697 C25.0413978,1.06121212 23.1585803,0 20.702012,0 C18.2452394,0 16.3626261,1.06121212 15.4782044,2.79676768 C14.8053902,2.57777778 14.0549593,2.46 13.2408011,2.46 C9.78399874,2.46 7.46142136,4.55939394 7.46142136,7.68424242 L7.46142136,16.0290909 C6.93669167,15.9008081 6.37397066,15.8319192 5.77938594,15.8319192 C2.37650677,15.8319192 6.21015203e-06,18.04 6.21015203e-06,21.2010101 C-0.0001980443,21.2008081 0.00470406256,33.6842424 0.00470406256,38.0557576 Z" id="Path"></path>
                </g>
            </g>
        </g>
    </g>
</svg>