<?xml version="1.0" encoding="UTF-8"?>
<svg width="60px" height="60px" viewBox="0 0 60 60" version="1.1" xmlns="http://www.w3.org/2000/svg" xmlns:xlink="http://www.w3.org/1999/xlink">
    <!-- Generator: Sketch 52.3 (67297) - http://www.bohemiancoding.com/sketch -->
    <title>icon-donate</title>
    <desc>Created with Sketch.</desc>
    <g id="Design" stroke="none" stroke-width="1" fill="none" fill-rule="evenodd">
        <g id="Tracing-Voices---Aukan" transform="translate(-654.000000, -3555.000000)" fill="#FFFFFF" fill-rule="nonzero">
            <g id="icon-donate" transform="translate(522.000000, 3555.000000)">
                <g transform="translate(132.000000, 0.000000)" id="Shape">
                    <path d="M46.529825,3.3644385 C44.6017654,1.19482888 41.929211,0 39.0043188,0 C35.7395763,0 32.9096151,1.54567567 30.8203236,4.46978578 C30.6636123,4.6890215 30.5171011,4.90825723 30.3797468,5.12528782 C30.2425085,4.90814117 30.0959973,4.6890215 29.9392859,4.46978578 C27.8498786,1.54567567 25.0199173,0 21.7551748,0 C18.8302827,0 16.1576124,1.19482888 14.2296687,3.36432244 C12.4001332,5.42321164 11.3924051,8.17567028 11.3924051,11.114636 C11.3924051,14.3084675 12.6302161,17.2555574 15.2874703,20.3896185 C17.6060332,23.1239719 20.9317448,25.9345761 24.7827639,29.1891066 C26.2058003,30.3918275 27.6774034,31.6354013 29.2411554,32.9924808 C29.567792,33.2758972 29.9737114,33.4177215 30.3796309,33.4177215 C30.7854345,33.4177215 31.191354,33.2758972 31.5181064,32.9924808 C33.0816267,31.6357494 34.5529979,30.3921757 35.9760343,29.1896869 C38.4492222,27.0994618 40.5851098,25.2943939 42.4386388,23.5435257 C46.0372043,20.1439213 49.3670886,16.2853029 49.3670886,11.114752 C49.3670886,8.17567028 48.3594764,5.4233277 46.529825,3.3644385 Z M40.0528476,21.0114633 C38.2694446,22.6962939 36.1675189,24.4725791 33.7337406,26.5293793 C32.6510182,27.4442735 31.5405931,28.3827277 30.3797468,29.3794436 C29.2186687,28.3828438 28.1078959,27.4441574 27.0251735,26.5290311 C19.4447256,20.1226824 14.8690324,16.2558239 14.8690324,11.114752 C14.8688006,6.76288233 17.8291614,3.481194 21.7550589,3.481194 C23.8524641,3.481194 25.6362148,4.46978578 27.0567012,6.41946333 C28.2225317,8.01945468 28.7011272,9.67817195 28.7043727,9.68931363 C28.9130121,10.4433499 29.5982765,10.9653839 30.3796309,10.9653839 C31.1609854,10.9653839 31.8462498,10.4433499 32.0548892,9.68931363 C32.0720439,9.62722199 33.8318011,3.481194 39.0043188,3.481194 C42.9301004,3.481194 45.8905772,6.76299839 45.8905772,11.114752 C45.8905772,14.2679629 44.2538013,17.0427049 40.0528476,21.0114633 Z"></path>
                    <path d="M54.0338291,35.6359803 C52.5940365,35.6359803 51.2051649,36.2420782 50.2234302,37.2987749 L45.1224142,42.7897453 C44.4631023,40.6642832 42.4831994,39.1166043 40.1493951,39.1166043 L32.1316446,39.1166043 C31.0091826,39.1166043 29.9267632,38.707085 29.0840198,37.963475 C24.5516993,33.9641343 17.7391574,33.928973 13.1637854,37.852885 C12.2202415,36.5133891 10.6655294,35.6360964 8.90921609,35.6360964 L1.73559765,35.6360964 C0.777124639,35.6360964 0,36.4152158 0,37.3764083 L0,58.259688 C0,59.2207645 0.777008909,60 1.73559765,60 L8.90921609,60 C10.4678631,60 11.867729,59.3087258 12.8227301,58.2169838 L13.8505252,58.5066297 C17.3661607,59.4975294 21.0003033,59.999884 24.6521526,59.999884 L40.1492794,59.999884 C43.9528503,59.999884 47.5861828,58.1782251 49.8683716,55.12708 L58.2007911,43.9872034 C58.2009068,43.9869713 58.2010226,43.9867392 58.201254,43.9865071 C58.8811657,43.0774184 59.2405063,41.9951919 59.2405063,40.8566842 C59.2405063,37.9779805 56.9047347,35.6359803 54.0338291,35.6359803 Z M10.6448137,54.778948 C10.6448137,55.7385159 9.86630035,56.51926 8.90921609,56.51926 L3.47107957,56.51926 L3.47107957,39.1164882 L8.90921609,39.1164882 C9.86618462,39.1164882 10.6448137,39.8971163 10.6448137,40.8568002 L10.6448137,54.778948 Z M55.4240895,41.8985273 C55.4240895,41.8986433 55.4239737,41.8986433 55.423858,41.8987594 L47.0915543,53.0388681 C45.4613863,55.2182906 42.8661488,56.519376 40.1492794,56.519376 L24.6524998,56.519376 C21.3182127,56.519376 18.000012,56.0606541 14.7901343,55.155975 L14.1113799,54.9646184 C14.1135787,54.902883 14.1161248,54.8412636 14.1161248,54.779064 L14.1161248,41.6434626 L15.3256154,40.5762058 C18.5938209,37.6925122 23.5228627,37.6922801 26.7912996,40.5762058 C28.2681257,41.879264 30.1645876,42.5968801 32.131876,42.5968801 L40.1496266,42.5968801 C41.1065951,42.5968801 41.8852242,43.3776242 41.8852242,44.3371921 C41.8852242,45.29676 41.1067108,46.0775041 40.1496266,46.0775041 L27.8145812,46.0775041 C26.8561082,46.0775041 26.0789836,46.8566236 26.0789836,47.8178161 C26.0789836,48.7790086 26.8559925,49.5581281 27.8145812,49.5581281 L41.3125939,49.5581281 C42.7523865,49.5581281 44.1410267,48.9522623 45.1225299,47.8957977 L52.763349,39.6710626 C53.0956088,39.3134149 53.5468387,39.1164882 54.0338291,39.1164882 C54.9907976,39.1164882 55.7694268,39.8971163 55.7694268,40.8568002 C55.7694268,41.2362641 55.6499938,41.5964647 55.4240895,41.8985273 Z"></path>
                </g>
            </g>
        </g>
    </g>
</svg>