<?xml version="1.0" encoding="UTF-8"?>
<svg width="90px" height="60px" viewBox="0 0 90 60" version="1.1" xmlns="http://www.w3.org/2000/svg" xmlns:xlink="http://www.w3.org/1999/xlink">
    <!-- Generator: Sketch 52.3 (67297) - http://www.bohemiancoding.com/sketch -->
    <title>icon-handshake-2</title>
    <desc>Created with Sketch.</desc>
    <g id="Design" stroke="none" stroke-width="1" fill="none" fill-rule="evenodd">
        <g id="Desktop-HD-Copy-2" transform="translate(-391.000000, -621.000000)" fill="#3F556B">
            <g id="icon-handshake-2" transform="translate(391.000000, 621.000000)">
                <path d="M70.3925828,41.1026083 C68.6324045,37.1668181 62.3353176,31.7037932 56.2514211,26.4252614 C52.8580678,23.4833292 49.6516284,20.701842 47.6074882,18.5095304 C47.0954459,17.9564269 46.329397,17.7800124 45.6530387,18.0405948 C44.3936914,18.529633 43.6162559,18.9063221 43.0034868,19.1988432 C42.069268,19.6476763 41.7553509,19.8000428 40.4958284,19.936252 C39.9389408,19.996372 39.438285,20.3170743 39.1280465,20.8140033 C36.4858522,25.0503933 33.7502884,24.6896736 31.9228422,24.0324874 C31.3398532,23.8241342 31.2352725,23.5554731 31.1792159,23.299024 C30.7868195,21.539576 32.7563343,17.4433407 35.3086628,14.7058162 C41.3815232,8.18881346 44.5131621,6.55749614 51.1278448,9.72788422 C58.6319011,13.3270027 66.1510226,16.1447497 66.2258231,16.1727431 C67.2087412,16.5374081 68.2662846,15.9843046 68.6063031,14.9382174 C68.9426429,13.8921303 68.4306006,12.7498512 67.4552152,12.3851861 C67.3804146,12.3571927 60.0108943,9.59562033 52.6562639,6.06451254 C44.0871316,1.95625321 39.3857319,4.66165104 32.6701472,11.8681545 C30.1139647,14.6096243 26.6421321,20.1566292 27.5390383,24.2248712 C27.9239021,25.9563258 29.0601,27.2389474 30.7491564,27.8360137 C34.9833592,29.3350671 38.847413,27.900079 41.7250453,23.8040316 C42.9134459,23.6077023 43.5600241,23.3191266 44.5315556,22.8501909 C44.8827855,22.6818551 45.2939259,22.4855259 45.8396021,22.2489914 C47.9772868,24.4012857 50.8622765,26.9062211 53.900546,29.5394749 C59.3940961,34.3049205 65.623915,39.7078254 67.0253309,42.8340629 C67.7167544,44.377079 66.972953,45.3831489 66.4684433,45.8440059 C65.7284957,46.5254279 64.7157976,46.7418598 64.1664426,46.3289108 C63.5610309,45.8840232 62.7725593,45.8560299 62.1484038,46.2567669 C61.5205695,46.657504 61.1693396,47.4150154 61.2478189,48.1926294 C61.3748222,49.4671723 60.2873235,50.1966904 59.8164478,50.4491942 C58.6205146,51.0984896 57.3723786,50.9863284 56.9051816,50.5213381 C56.3819279,50.0003612 55.6307691,49.8479946 54.9656221,50.1125224 C54.3004751,50.3809956 53.8369568,51.0383697 53.7696888,51.7998265 C53.6575756,53.1143868 52.7494581,54.3769058 51.5647362,54.8698894 C50.9929585,55.1022906 50.1633204,55.2426331 49.4196941,54.513115 C48.956351,54.064282 48.3134515,53.8918129 47.7118937,54.0481248 C47.1028033,54.208382 46.6131837,54.6814509 46.4001685,55.3106438 C46.3292218,55.5111062 46.1684093,55.9920658 44.4194424,55.9920658 C43.1749851,55.9920658 40.9363985,55.0902666 39.8415424,54.3126526 C38.5298171,53.3868053 30.3043821,46.8057372 23.2002548,40.4249437 C22.2024468,39.5231444 20.4759025,37.5912274 18.951162,35.8838207 C17.5982702,34.3687979 16.3613456,32.9941177 15.7259787,32.4169661 C14.9299745,31.6955267 13.7527852,31.8037426 13.0913169,32.6535006 C12.4261699,33.4991253 12.523218,34.7657775 13.3118647,35.4791383 C13.891175,36.0042485 15.0123077,37.2746582 16.2492323,38.6574171 C17.9160413,40.525081 19.6387317,42.4569981 20.7973522,43.4991399 C27.7559074,49.7476695 36.1195571,56.4931281 37.7861909,57.6673459 C39.1615053,58.6373437 42.1249743,60 44.4196176,60 C46.2619538,60 47.6784349,59.5470337 48.6611778,58.6613917 C49.9765817,59.2105499 51.471542,59.2144953 52.9102706,58.6132957 C54.6107135,57.9078257 56.0082755,56.4850494 56.8006009,54.7616735 C58.2729634,55.0983452 59.9585163,54.8618107 61.4906142,54.0362887 C62.9892533,53.2267359 64.0728981,51.9882649 64.6110417,50.5412528 C66.0984695,50.6254208 67.6305673,50.0602932 68.8974472,48.8939662 C71.0428397,46.926165 71.6331861,43.8641807 70.3925828,41.1026083 Z" id="Path"></path>
                <path d="M37.0651175,8.27586207 L20.3460808,8.27586207 C19.3206465,8.27586207 18.488352,9.20279431 18.488352,10.3448276 C18.488352,11.4868609 19.3206465,12.4137931 20.3460808,12.4137931 L37.0651175,12.4137931 C38.0905517,12.4137931 38.9228463,11.4868609 38.9228463,10.3448276 C38.9228463,9.20279431 38.0905517,8.27586207 37.0651175,8.27586207 Z" id="Path"></path>
                <path d="M75.5971139,37.1329917 C75.045708,36.1772951 73.9430631,35.9143562 73.1285431,36.5654429 L67.9281207,40.6638848 C67.1136007,41.306559 66.8965065,42.604624 67.4444108,43.5603206 C67.7893938,44.1572153 68.351471,44.4827586 68.9242194,44.4827586 C69.2621993,44.4827586 69.6071823,44.3700705 69.9131484,44.1280651 L75.1135708,40.0296231 C75.927924,39.3867533 76.1448515,38.088884 75.5971139,37.1329917 Z" id="Path"></path>
                <path d="M64.500842,46.1912845 C63.194791,45.0975018 57.3537311,38.7404348 53.741868,34.7376553 C53.0449768,33.9618623 51.888565,33.9347722 51.16243,34.6794754 C50.4327037,35.4203605 50.4108136,36.6497753 51.1077048,37.4217503 C52.0453869,38.4611712 60.3160745,47.6265108 62.2388102,49.2400949 C62.5707527,49.5193586 62.9721278,49.6551724 63.3661492,49.6551724 C63.9024562,49.6551724 64.4387631,49.3991807 64.8035408,48.9142873 C65.427579,48.0763144 65.2926472,46.8545358 64.500842,46.1912845 Z" id="Path"></path>
                <path d="M56.734539,50.1099535 C54.5695152,48.127644 49.1301026,41.5105053 47.9011267,39.9793997 C47.2215813,39.1351869 46.083076,39.0855273 45.3457582,39.8552508 C44.6119983,40.6290479 44.561511,41.940953 45.2373291,42.7810922 C45.3023866,42.8596552 51.7937307,50.8839445 54.4754869,53.3420936 C54.8080592,53.6441247 55.2092468,53.7931034 55.6031493,53.7931034 C56.130894,53.7931034 56.6584693,53.5240494 57.0162852,53.0193064 C57.6382277,52.12524 57.5116706,50.8216761 56.734539,50.1099535 Z" id="Path"></path>
                <path d="M49.9575453,54.2782589 C47.3806862,51.7920756 42.1078743,45.36748 41.0778761,44.1056755 C40.3948246,43.2700961 39.2491209,43.2245261 38.5227011,44.0063911 C37.7927237,44.7882561 37.7564705,46.0954366 38.4359644,46.93121 C39.9177728,48.7472233 44.9629008,54.8698934 47.6264966,57.4429506 C47.9661589,57.7696973 48.3781582,57.9310345 48.7901575,57.9310345 C49.3032931,57.9310345 49.8165982,57.6787512 50.174387,57.1947395 C50.8176277,56.3176623 50.720049,55.0145539 49.9575453,54.2782589 Z" id="Path"></path>
                <path d="M21.7993181,4.58612465 C18.6024741,1.30995669 5.81911981,0.248790695 1.97706694,0.00274240469 C1.44743611,-0.0254368384 0.958720971,0.164063843 0.585758755,0.547415022 C0.212621685,0.926605507 0,1.45917429 0,2.01595074 L0,38.3274586 C0,39.4410115 0.835624206,40.3448276 1.86516079,40.3448276 L13.0557758,40.3448276 C13.8615001,40.3448276 14.5776995,39.7840796 14.8275649,38.9528865 C15.0998116,38.0490703 21.5270714,16.7141683 22.3737113,6.22411408 C22.4223206,5.61079002 22.2133708,5.00559822 21.7993181,4.58612465 Z M11.6941927,36.3102786 L3.73014672,36.3102786 L3.73014672,4.1785658 C9.72464445,4.69089848 16.1928199,5.80445139 18.5428491,7.03904266 C17.554403,15.8748429 13.081829,31.5735181 11.6941927,36.3102786 Z" id="Shape" fill-rule="nonzero"></path>
                <path d="M87.6410667,4.13793103 C72.8680912,4.13793103 64.6726218,8.19259254 64.330262,8.36204108 C63.8411514,8.60808188 63.4760381,9.06404218 63.3255833,9.61683022 C63.1751284,10.1696183 63.2502676,10.7626882 63.5324808,11.2547697 C65.857917,15.2691494 73.1390158,37.563736 74.5387929,43.0021642 C74.7645634,43.8775853 75.5059021,44.4827586 76.3525415,44.4827586 L87.6410667,44.4827586 C88.6796111,44.4827586 89.5225464,43.57897 89.5225464,42.4654511 L89.5225464,6.15504949 C89.5225464,5.03755906 88.6796111,4.13793103 87.6410667,4.13793103 Z M85.7597635,40.4483326 L77.7599031,40.4483326 C75.9763161,34.2190184 70.7082788,17.9761655 67.7695582,11.2629018 C70.6405477,10.2180321 76.8079629,8.42255842 85.7597635,8.19675311 L85.7597635,40.4483326 Z" id="Shape" fill-rule="nonzero"></path>
            </g>
        </g>
    </g>
</svg>