<?xml version="1.0" encoding="UTF-8"?>
<svg width="512px" height="512px" viewBox="0 0 512 512" version="1.1" xmlns="http://www.w3.org/2000/svg" xmlns:xlink="http://www.w3.org/1999/xlink">
    <!-- Generator: Sketch 53 (72520) - https://sketchapp.com -->
    <title>email-alt</title>
    <desc>Created with Sketch.</desc>
    <g id="Desktop" stroke="none" stroke-width="1" fill="none" fill-rule="evenodd">
        <g id="Desktop-HD" fill="#323232" fill-rule="nonzero">
            <g id="email-alt">
                <path d="M499.161,170.733 L341.257,12.828 C324.166,-4.263 296.356,-4.263 279.265,12.828 L32.839,259.255 C24.294,267.801 20.021,279.026 20.021,290.251 C20.021,301.476 24.294,312.701 32.839,321.247 L72.458,360.866 L28.955,404.369 C27.002,406.322 26.026,408.881 26.026,411.44 C26.026,413.999 27.002,416.558 28.955,418.511 C32.86,422.416 39.192,422.417 43.097,418.511 L86.6,375.008 L104.719,393.128 L2.929,494.919 C0.976,496.871 0,499.431 0,501.99 C0,504.549 0.976,507.109 2.929,509.061 C6.834,512.966 13.166,512.966 17.072,509.061 L118.863,407.27 L190.743,479.151 C207.835,496.241 235.644,496.241 252.735,479.151 L499.161,232.724 C507.44,224.446 512,213.437 512,201.729 C512,190.02 507.44,179.012 499.161,170.733 Z M214.473,470.833 C210.965,469.716 207.662,467.787 204.884,465.009 L46.981,307.105 C40.75,300.873 38.718,292.026 40.843,284.069 L214.473,284.069 L214.473,470.833 Z M178.326,264.069 L207.979,234.416 C211.884,230.511 211.885,224.179 207.979,220.274 C204.073,216.369 197.742,216.368 193.837,220.274 L150.041,264.069 L120.906,264.069 L211.312,173.663 C215.216,169.758 215.217,163.426 211.312,159.52 C207.407,155.615 201.075,155.615 197.169,159.52 L92.622,264.069 L56.31,264.069 L284.079,36.299 L284.079,240.234 C284.079,253.377 273.387,264.069 260.244,264.069 L178.326,264.069 Z M485.02,218.583 L238.593,465.009 C237.322,466.28 235.934,467.361 234.474,468.285 L234.474,284.069 L260.245,284.069 C284.415,284.069 304.08,264.405 304.08,240.234 L304.08,214.463 L418.704,214.463 L360.837,272.331 C358.885,274.283 357.908,276.843 357.908,279.402 C357.908,281.962 358.884,284.52 360.837,286.473 C364.742,290.378 371.074,290.378 374.98,286.473 L446.982,214.471 C446.984,214.469 446.986,214.466 446.988,214.464 L488.316,214.463 C487.381,215.937 486.284,217.32 485.02,218.583 Z M304.079,194.463 L304.079,20.833 C312.037,18.708 320.884,20.74 327.115,26.971 L485.019,184.875 C487.751,187.606 489.732,190.885 490.872,194.463 L304.079,194.463 Z" id="Shape"></path>
                <path d="M235.79,135.05 C233.93,133.18 231.35,132.12 228.72,132.12 C226.08,132.12 223.51,133.18 221.65,135.05 C219.79,136.91 218.72,139.48 218.72,142.12 C218.72,144.75 219.79,147.33 221.65,149.19 C223.51,151.05 226.08,152.12 228.72,152.12 C231.35,152.12 233.93,151.05 235.79,149.19 C237.65,147.33 238.72,144.75 238.72,142.12 C238.72,139.48 237.65,136.91 235.79,135.05 Z" id="Path"></path>
                <path d="M17.11,430.35 C15.25,428.49 12.67,427.42 10.04,427.42 C7.41,427.42 4.83,428.49 2.97,430.35 C1.11,432.21 0.04,434.79 0.04,437.42 C0.04,440.05 1.11,442.63 2.97,444.49 C4.83,446.35 7.41,447.42 10.04,447.42 C12.68,447.42 15.25,446.35 17.11,444.49 C18.98,442.63 20.04,440.05 20.04,437.42 C20.04,434.79 18.98,432.21 17.11,430.35 Z" id="Path"></path>
                <path d="M127.018,449.497 C123.112,445.592 116.78,445.592 112.875,449.497 L67.459,494.913 C65.507,496.865 64.53,499.425 64.53,501.984 C64.53,504.543 65.506,507.103 67.459,509.056 C71.365,512.961 77.697,512.961 81.602,509.056 L127.018,463.64 C130.922,459.734 130.922,453.402 127.018,449.497 Z" id="Path"></path>
            </g>
        </g>
    </g>
</svg>