<?xml version="1.0" encoding="UTF-8"?>
<svg width="51px" height="43px" viewBox="0 0 51 43" version="1.1" xmlns="http://www.w3.org/2000/svg" xmlns:xlink="http://www.w3.org/1999/xlink">
    <!-- Generator: Sketch 51.3 (57544) - http://www.bohemiancoding.com/sketch -->
    <title>“</title>
    <desc>Created with Sketch.</desc>
    <defs></defs>
    <g id="Design" stroke="none" stroke-width="1" fill="none" fill-rule="evenodd" opacity="0.100000001">
        <g id="Tracing-Voices-Copy-2" transform="translate(-195.000000, -5514.000000)" fill="#FFFFFF">
            <path d="M210.8,5536.6 C212.666676,5537.53334 214.066662,5538.83333 215,5540.5 C215.933338,5542.16667 216.4,5543.99999 216.4,5546 C216.4,5549.20002 215.366677,5551.83332 213.3,5553.9 C211.233323,5555.96668 208.666682,5557 205.6,5557 C202.666652,5557 200.166677,5556.00001 198.1,5554 C196.033323,5551.99999 195,5549.33335 195,5546 C195,5544.53333 195.299997,5543.00001 195.9,5541.4 C196.500003,5539.79999 197.13333,5538.26667 197.8,5536.8 L208.6,5514 L218.8,5514 L210.8,5536.6 Z M238,5536.6 C239.866676,5537.53334 241.266662,5538.83333 242.2,5540.5 C243.133338,5542.16667 243.6,5543.99999 243.6,5546 C243.6,5549.20002 242.566677,5551.83332 240.5,5553.9 C238.433323,5555.96668 235.866682,5557 232.8,5557 C229.866652,5557 227.366677,5556.00001 225.3,5554 C223.233323,5551.99999 222.2,5549.33335 222.2,5546 C222.2,5544.53333 222.499997,5543.00001 223.1,5541.4 C223.700003,5539.79999 224.33333,5538.26667 225,5536.8 L235.8,5514 L246,5514 L238,5536.6 Z" id="“"></path>
        </g>
    </g>
</svg>